<svg width="150.86" height="40.362" version="1.1" viewBox="0 0 39.915 10.679" xmlns="http://www.w3.org/2000/svg" xmlns:osb="http://www.openswatchbook.org/uri/2009/osb" xmlns:xlink="http://www.w3.org/1999/xlink">
 <defs>
  <linearGradient id="linearGradient841" x1=".46372" x2="43.125" y1="4.9727" y2="4.9727" gradientUnits="userSpaceOnUse">
   <stop offset="0"/>
  </linearGradient>
  <linearGradient id="linearGradient847" x1=".46372" x2="43.125" y1="4.9727" y2="4.9727" gradientUnits="userSpaceOnUse">
   <stop stop-color="#f95b5b" offset="0"/>
  </linearGradient>
 </defs>
 <g>
  <g transform="scale(.91721 1.0903)" fill="url(#linearGradient841)" stroke="url(#linearGradient847)" stroke-width=".135" aria-label="accessories">
   <path d="m42.64 4.5569h-0.09396c0.02819-0.046978 0.04698-0.046978 0.09396-0.046978h0.0094c0.0094-0.037583 0.04698-0.065769 0.07516-0.037583 0.04698 0.037583 0.08456 0.037583 0.16912 0.0094 0.03758-0.0094 0.09396-0.0094 0.15033-0.037582l0.07516-0.037582c0.01879-0.046978-0.0094-0.065769-0.04698-0.093956-0.10335-0.075165-0.08456-0.075165-0.19731-0.065769-0.15033 0.037582-0.32885 0.093956-0.47918 0.15973-0.0094 0.0094-0.01879 0.028187-0.01879 0.037582 0.0094 0.028187 0.01879 0.037582 0 0.065769-0.03758 0.046978-0.07517 0.046978-0.11275 0.046978 0.0094-0.046978 0.04698-0.037582 0.09396-0.046978v-0.065769h-0.09396c-0.26308 0.14093-0.54495 0.26308-0.81742 0.37582-0.02819 0.0094-0.03758 0.046978-0.05637 0.075165 0.05637 0 0.08456-0.018791 0.14093-0.028187 0.0094-0.037582 0.04698 0 0.07517 0-0.0094 0.0094-0.02819 0.028187-0.03758 0.028187-0.06577 0.037582-0.12214 0.084561-0.2161 0.075165 0-0.018791 0.02819-0.037582 0.03758-0.075165-0.03758 0-0.05637 0.0094-0.08456 0.037582-0.28187 0.13154-0.55434 0.27247-0.79863 0.4322-0.09396 0.046978-0.12214 0.046978-0.15973-0.046978-0.07516-0.17852-0.19731-0.34764-0.31945-0.53555-0.07516-0.13154-0.15033-0.26308-0.15973-0.41341-0.03758-0.084561 0-0.15033 0.06577-0.19731 0.05637-0.056374 0.11275-0.11275 0.17852-0.14093 0.07517-0.018791 0.14093-0.065769 0.23489-0.0094 0.07517 0.028187 0.11275 0.0094 0.14094-0.093956 0.01879-0.037583 0.01879-0.028187 0.04698 0 0.11275 0.10335 0.26308 0.12214 0.37582 0.056374 0.04698-0.037582 0.06577-0.093956 0.0094-0.15033-0.15033-0.15033-0.30066-0.27247-0.53555-0.28187-0.16912-0.028187-0.33824 0.028187-0.49797 0.037582-0.10335 0.028187-0.2255 0.11275-0.30066 0.18791-0.08456 0.084561-0.10335 0.18791-0.09396 0.28187 0.0094 0.12214 0.0094 0.25368 0.09396 0.37582 0.13154 0.19731 0.24429 0.44159 0.36643 0.6389 0.06577 0.13154 0.15972 0.23489 0.2067 0.35703 0.05637 0.056374 0.03758 0.084561-0.0094 0.13154-0.26308 0.15033-0.48857 0.31945-0.73286 0.46038-0.11275 0.075165-0.2255 0.14093-0.31945 0.2161-0.22549 0.13154-0.44159 0.28187-0.62951 0.46038-0.02819 0.046978-0.04698 0.056374-0.05637 0.08456-0.07516 0.13154-0.06577 0.25368-0.01879 0.38522 0.02819 0.12214 0.09396 0.19731 0.2161 0.23489 0.08456 0.056374 0.19731 0.084561 0.31006 0.14093 0.15033 0.065769 0.29126 0.12214 0.4322 0 0.06577-0.028187 0.14093-0.028187 0.23489-0.056374 0.07516-0.0094 0.16912-0.056374 0.2255-0.12214 0.12214-0.10335 0.25368-0.2067 0.37582-0.32885 0.18791-0.16912 0.28187-0.25368 0.35703-0.48857 0.05637-0.14093 0.10335-0.29126 0.05637-0.46038-0.01879-0.075165-0.01879-0.15033-0.02819-0.24429 0-0.08456 0.0094-0.13154 0.10335-0.16912 0.07516-0.046978 0.13154-0.12214 0.23489-0.12214 0.13154-0.084561 0.24429-0.15033 0.35703-0.24429 0.06577-0.018791 0.11275-0.065769 0.15033-0.08456 0.08456 0 0-0.093956 0.09396-0.093956 0.14093-0.08456 0.28187-0.15033 0.41341-0.22549 0.03758-0.0094 0.07516-0.0094 0.08456-0.0094 0.09396-0.075165 0.17852-0.12214 0.26308-0.15033 0.08456-0.037582 0.12214-0.065769 0.18791-0.11275v-0.028187h-0.05637c0.0094 0 0.01879-0.0094 0.01879-0.018791h-0.02819c0.03758-0.037582 0.11275-0.028187 0.15033-0.028187 0.03758 0.046978 0.05637 0.046978 0.09396 0zm-2.5932 2.1986c-0.04698 0.046978-0.09396 0.065769-0.13154 0.11275-0.11275 0.15033-0.26308 0.19731-0.45099 0.23489-0.04698 0-0.09396 0.028187-0.13154 0.028187-0.11275 0.028187-0.2067 0.028187-0.31006 0-0.07516-0.028187-0.16912-0.037582-0.22549-0.065769-0.02819 0-0.03758-0.0094-0.02819-0.028187 0-0.018791 0.02819-0.046978 0.03758-0.065769 0.12214-0.15033 0.27247-0.27247 0.46038-0.36643 0.2255-0.12214 0.4228-0.25368 0.62011-0.4322 0.13154-0.10335 0.27247-0.17852 0.4322-0.27247 0.08456 0.35703-0.04698 0.62011-0.27247 0.855zm1.1557-1.5879v-0.037583h-0.09396c0.03758-0.10335 0.09396-0.10335 0.19731-0.08456v0.028187c-0.04698 0-0.08456 0-0.10335 0.056374 0.03758 0 0.10335 0 0.11275-0.056374h0.07517c-0.03758 0.093956-0.08456 0.13154-0.18791 0.093956zm-0.09396 0.056374v-0.056374l-0.04698 0.056374h-0.14093c0.03758-0.084561 0.10335-0.093956 0.18791-0.093956v0.037583h0.08456c0 0.056374-0.04698 0.056374-0.08456 0.056374zm0.88319-0.44159v-0.037582h-0.15033c0.03758-0.065769 0.08456-0.11275 0.16912-0.093956-0.0094 0.028187-0.01879 0.056374-0.01879 0.093956h0.07516c-0.01879 0.037582-0.05637 0.037582-0.07516 0.037582zm-1.306 0.58253c0.04698-0.08456 0.11275-0.11275 0.2255-0.14093-0.05637 0.093956-0.14093 0.14093-0.2255 0.14093zm1.5785-0.77984h0.13154v0.018791c-0.01879 0.075165-0.08456 0.028187-0.13154 0.028187v-0.028187c-0.0094 0-0.02819 0-0.03758-0.018791-0.02819 0-0.02819 0-0.03758-0.018791 0.0094 0 0.0094-0.0094 0.03758-0.0094h0.03758zm-1.7288 0.88319c0.0094-0.065769 0.06577-0.10335 0.14093-0.093956-0.01879 0.056374-0.07516 0.093956-0.14093 0.093956zm1.2402-0.57313c0.01879-0.065769 0.06577-0.065769 0.10335-0.065769-0.01879 0.065769-0.03758 0.065769-0.10335 0.065769zm-1.663 0.80802c0.02819-0.037582 0.04698-0.037582 0.08456-0.037582 0.01879 0 0.01879 0.0094 0.01879 0.0094-0.02819 0.028187-0.06577 0.037582-0.09396 0.056374l-0.0094-0.018791zm1.2778-0.62951c0.01879-0.046978 0.05637-0.046978 0.11275-0.028187-0.02819 0.046978-0.05637 0.028187-0.11275 0.028187zm0.11275-0.046978c0.0094-0.056374 0.03758-0.056374 0.07516-0.046978 0 0.046978-0.04698 0.065769-0.07516 0.046978zm0.17852-0.093956c0.01879-0.056374 0.04698-0.037582 0.09396-0.037582-0.0094 0.046978-0.04698 0.046978-0.09396 0.037582zm-1.9668-0.60132c-0.02819-0.0094-0.05637-0.028187-0.08456-0.056374-0.07517-0.10335-0.15033-0.11275-0.27247-0.075165-0.06577 0.046978-0.15972 0.093956-0.23489 0.12214-0.09396 0.037582-0.17852 0.046978-0.27247 0.10335-0.29126 0.12214-0.61072 0.28187-0.92077 0.41341-0.05637 0.018791-0.10335 0.018791-0.12214 0.056374-0.09396 0.037582-0.17852 0.084561-0.24428 0.15033-0.04698 0.056374-0.04698 0.056374-0.09396 0-0.15972 0.08456-0.30066 0.15973-0.47918 0.24429-0.15033 0.046978-0.31945 0.15033-0.47918 0.17852-0.18791 0.046978-0.39462 0.11275-0.60132 0.11275-0.09396 0.056374-0.2161 0-0.31945-0.028187-0.06577-0.028187-0.10335-0.084561-0.07516-0.17852 0.08456-0.24429 0.27247-0.44159 0.4228-0.65769 0.03758-0.037583 0.05637-0.037583 0.08456-0.037583 0.15033 0 0.30066 0.028187 0.4228 0.028187 0.08456 0 0.18791 0.0094 0.27247-0.028187 0.31006-0.046978 0.62011-0.14093 0.87379-0.34764l0.13154-0.084561c0.18791-0.075165 0.26308-0.24429 0.38522-0.39462 0.09396-0.10335 0.09396-0.23489 0.01879-0.36643-0.02819-0.046978-0.07516-0.14093-0.15033-0.2067-0.0094-0.018791-0.06577-0.028187-0.10335-0.037583-0.03758-0.028187-0.06577 0-0.08456-0.028187-0.11275-0.075165-0.2161-0.056374-0.33824 0.028187-0.08456 0.037583-0.19731 0.046978-0.28187 0.084561-0.12214 0.018791-0.25368 0.075165-0.33824 0.14093-0.31945 0.16912-0.59192 0.38522-0.855 0.62951-0.28187 0.22549-0.50736 0.49797-0.65769 0.83621l-0.06577 0.12214c-0.03758 0.16912-0.03758 0.2067 0 0.41341 0.03758 0.11275 0.08456 0.23489 0.19731 0.31945 0.06577 0.065769 0.14094 0.11275 0.24429 0.14093 0.15973 0.056374 0.31945 0.12214 0.50736 0.046978 0.03758-0.046978 0.07516-0.046978 0.13154-0.065769 0.32885-0.046978 0.6389-0.15973 0.92077-0.31945 0.19731-0.093956 0.40401-0.18791 0.61072-0.27247 0.19731-0.11275 0.4322-0.15033 0.62011-0.29126 0.0094-0.018791 0.04698-0.018791 0.07516-0.037582 0.2255-0.093956 0.46038-0.17852 0.69528-0.28187 0.15973-0.065769 0.29126-0.14093 0.45099-0.15973 0.0094 0 0.05637-0.0094 0.05637-0.028187 0.05637-0.046978 0.01879-0.15033-0.04698-0.18791zm-3.5703 0.11275 0.25368-0.24429c0.18791-0.14093 0.37582-0.30066 0.61072-0.41341 0.17852-0.11275 0.38522-0.16912 0.59192-0.18791 0.05637 0 0.10335-0.0094 0.11275-0.046978 0.0094-0.028187 0.04698-0.065769 0.07516-0.037583 0.03758 0.037583 0.07516 0.056374 0.04698 0.10335 0 0.046978 0 0.10335-0.02819 0.13154-0.04698 0.11275-0.13154 0.22549-0.23489 0.28187-0.19731 0.15033-0.40401 0.26308-0.65769 0.33824-0.12214 0.056374-0.2067 0.084561-0.31945 0.12214-0.07517 0.018791-0.18791 0.028187-0.27247 0.046978v-0.018791c-0.04698 0-0.08456 0-0.12214 0.018791-0.02819 0-0.08456 0.028187-0.11275 0-0.0094-0.028187 0.04698-0.08456 0.05637-0.093956zm-0.05138-0.16912c-0.03758-0.093956 0.05637-0.17852 0.0094-0.19731-0.05637-0.0094-0.28187 0.10335-0.32885 0.13154-0.10335 0.065769-0.18791 0.12214-0.30066 0.17852-0.11275 0.065769-0.27247 0.13154-0.37582 0.24429-0.03758 0.037582-0.11275 0.075165-0.15973 0.084561-0.19731 0.093956-0.35703 0.2161-0.53555 0.31006-0.24429 0.14093-0.4322 0.27247-0.66709 0.37582-0.11275 0.08456-0.24429 0.11275-0.33824 0.17852-0.12214 0.056374-0.23489 0.10335-0.34764 0.13154-0.12214 0.046978-0.24429 0.084561-0.35703 0.12214-0.12214 0.028187-0.26308 0.028187-0.34764-0.037583-0.02819-0.13154-0.01879-0.23489 0.01879-0.34764 0.05637-0.08456 0.09396-0.15973 0.11275-0.24429 0.07516-0.22549 0.22549-0.46038 0.37582-0.66709 0.07516-0.13154 0.16912-0.24429 0.26308-0.40401 0.04698-0.10335 0.15033-0.18791 0.28187-0.15973h0.02819c0.03758 0 0.06577-0.075165 0.03758-0.12214-0.07516-0.065769-0.15033-0.13154-0.23489-0.18791-0.10335-0.046978-0.2161-0.028187-0.30066 0.056374-0.07516 0.093956-0.18791 0.18791-0.26308 0.28187-0.24429 0.29126-0.4322 0.60132-0.57313 0.95835-0.03758 0.14093-0.07516 0.28187-0.10335 0.4322-0.01879 0.16912 0.01879 0.33824 0.08456 0.48857 0.04698 0.14093 0.13154 0.2161 0.19731 0.32885 0.0094 0.0094 0.05637 0.028187 0.07516 0.028187 0.24429 0.065769 0.50736 0.065769 0.74225-0.018791 0.12214-0.046978 0.23489-0.093956 0.35703-0.13154 0.26308-0.10335 0.48857-0.25368 0.71407-0.37582 0.12214-0.075165 0.24429-0.15973 0.38522-0.22549 0.12214-0.08456 0.23489-0.19731 0.38522-0.24429 0.08456-0.10335 0.24429-0.17852 0.36643-0.26308v-0.037583h-0.09396c0.03758-0.075165 0.07517-0.10335 0.14094-0.10335 0.01879-0.028187 0.06577-0.028187 0.10335-0.046978 0.02819-0.075165 0.07516-0.08456 0.15033-0.11275 0.02819-0.018791 0.04698-0.018791 0.07516-0.018791 0.02819-0.056374 0.08456-0.056374 0.11275-0.056374v0.056374c0.04698-0.018791 0.17852-0.17852 0.31006-0.38522zm-2.4992-1.4845c0.05637 0.018791 0.11275 0.018791 0.14093 0.028187h0.08456c0.10335-0.0094 0.15972-0.065769 0.22549-0.10335 0.03758-0.056374 0.0094-0.11275 0.0094-0.15973-0.0094-0.08456-0.08456-0.13154-0.13154-0.19731-0.01879 0-0.03758-0.028187-0.05637-0.028187-0.12214-0.0094-0.2161 0.028187-0.31006 0.093956-0.15033 0.10335-0.11275 0.31945 0.03758 0.36643zm2.114 1.7476c-0.26308 0.13154-0.51676 0.30066-0.77044 0.44159-0.08456 0.046978-0.15972 0.08456-0.25368 0.08456 0-0.018791 0.05637-0.056374 0.09396-0.075165 0.19731-0.12214 0.39462-0.22549 0.59192-0.34764 0.13154-0.075165 0.26308-0.13154 0.40401-0.16912-0.01879 0.018791-0.04698 0.065769-0.06577 0.065769zm-3.0411-0.57313c-0.2161 0.084561-0.93956 0.6389-1.1745 0.68588 0.01879-0.10335 0.12214-0.17852 0.15033-0.29126 0.03758-0.065769 0.06577-0.11275 0.12214-0.15033 0.06577-0.065769 0.06577-0.15033 0.02819-0.19731l-0.15033-0.15973c-0.10335-0.12214-0.30066-0.18791-0.46038-0.10335-0.2255 0.11275-0.46038 0.19731-0.69528 0.31006-0.4322 0.23489-0.855 0.49797-1.2308 0.81742h-0.02819c-0.0094-0.0094-0.0094-0.046978 0-0.046978l0.25368-0.46038c0.08456-0.13154 0.11275-0.31006 0.23489-0.44159 0.03758-0.028187 0.0094-0.093956-0.01879-0.14093l-0.15033-0.08456c-0.10335-0.075165-0.26308-0.018791-0.30066 0.08456-0.05637 0.17852-0.14093 0.31006-0.2161 0.46038-0.16912 0.33824-0.34764 0.68588-0.53555 1.0053-0.15973 0.30066-0.31006 0.56374-0.46038 0.83621-0.03758 0.046978-0.04698 0.075165-0.07516 0.13154 0 0.065769-0.01879 0.14093 0 0.2161 0.03758 0.065769 0.09396 0.11275 0.14093 0.18791 0.0094 0.0094 0.03758 0.0094 0.07516 0.028187 0.05637 0.028187 0.08456 0.018791 0.12214-0.046978 0.03758-0.084561 0.12214-0.13154 0.16912-0.23489 0.12214-0.2067 0.30066-0.37582 0.44159-0.55434 0.07517-0.14093 0.19731-0.23489 0.31945-0.34764 0.05637-0.056374 0.12214-0.093956 0.16912-0.15033 0.05637-0.037582 0.12214-0.075165 0.16912-0.11275 0.34764-0.31006 0.75165-0.52615 1.1557-0.78923 0.08456-0.046978 0.18791-0.075165 0.28187-0.12214 0.02819-0.0094 0.07516 0.018791 0.07516 0.046978-0.05637 0.2067-0.0094 0.28187 0.08456 0.46038 0.0094 0.046978 0.03758 0.075165 0.04698 0.13154 0.04698 0.065769 0.07517 0.075165 0.14093 0.075165 0.17852 0 0.32885-0.0094 0.45099-0.16912 0.07516-0.12214 0.73286-0.54495 0.80802-0.66709 0.03758-0.046978 0.05637-0.093956 0.07516-0.15033 0-0.0094 0-0.046978-0.01879-0.056374zm-3.4698 0.26308c0-0.0094-0.05637-0.16912-0.08456-0.14093-0.07516 0.0094-0.15033 0-0.23489 0.037583-0.04698 0.056374-0.12214 0.08456-0.19731 0.11275-0.15973 0.037582-0.29126 0.056374-0.4228 0.10335-0.23489 0.046978-0.46038 0.093956-0.68588 0.13154-0.15033 0.037583-0.31006 0.037583-0.46038 0 0.05637-0.11275 0.08456-0.22549 0.12214-0.32885 0.06577-0.25368 0.05637-0.51676-0.15033-0.73286-0.04698-0.056374-0.09396-0.11275-0.13154-0.18791-0.02819-0.028187 0.0094-0.028187 0.02819-0.028187 0.04698-0.028187 0.04698-0.10335 0-0.11275-0.11275-0.037583-0.2161-0.11275-0.34764-0.065769-0.06577 0.028187-0.13154 0.028187-0.2067 0.028187-0.09396-0.018791-0.17852-0.018791-0.26308 0-0.06577 0-0.13154 0-0.17852 0.037583-0.12214 0.046978-0.25368 0.093956-0.37582 0.15973-0.07517 0.056374-0.14093 0.12214-0.2067 0.19731-0.05637 0.075165-0.07517 0.15033-0.06577 0.26308 0 0.08456-0.02819 0.18791-0.12214 0.26308-0.11275 0.12214-0.19731 0.25368-0.30066 0.37582-0.2255 0.26308-0.37582 0.56374-0.45099 0.91137-0.04698 0.084561-0.04698 0.17852-0.05637 0.25368 0 0.29126 0.2067 0.59192 0.59192 0.62011 0.2161 0 0.41341-0.056374 0.61071-0.15973 0.28187-0.15033 0.50736-0.36643 0.77984-0.53555 0.01879-0.018791 0.01879-0.028187 0.03758-0.056374l0.32885-0.34764c0.16912-0.24429 0.15972-0.2067 0.44159-0.2067 0.17852 0 0.34764 0 0.50736-0.018791 0.12214-0.018791 0.24429-0.028187 0.35703-0.028187 0.04698 0 0.09396-0.018791 0.11275-0.065769 0.0094 0 0.44159-0.12214 0.45099-0.10335zm-2.8281 0.59192c-0.10335 0.084561-0.15973 0.15033-0.23489 0.22549-0.27247 0.24429-0.57313 0.46038-0.92077 0.62951-0.10335 0.037582-0.19731 0.075165-0.26308 0.056374h-0.15033c-0.05637-0.018791-0.11275-0.065769-0.08456-0.12214 0.07517-0.14093 0.12214-0.32885 0.19731-0.47918 0.10335-0.17852 0.18791-0.34764 0.27247-0.52615 0.04698-0.15973 0.14093-0.26308 0.2161-0.39462 0.0094-0.037582 0.04698-0.037582 0.09396 0.0094 0.2161 0.25368 0.46038 0.4322 0.79863 0.49797 0.0094 0.028187 0.03758 0.028187 0.04698 0.037582 0.02819 0 0.03758 0.046978 0.02819 0.065769zm0.54494-0.99593c-0.0094 0.18791-0.08456 0.35703-0.18791 0.53555-0.02819 0.056374-0.09396 0.084561-0.18791 0.075165-0.15973-0.028187-0.32885-0.046978-0.49797-0.12214-0.10335-0.037582-0.24429-0.075165-0.31945-0.16912-0.0094-0.028187-0.04698-0.056374-0.06577-0.084561-0.04698-0.037582-0.04698-0.075165 0-0.11275l0.2067-0.18791c0.12214-0.093956 0.23489-0.19731 0.36643-0.27247 0.11275-0.093956 0.2255-0.15973 0.36643-0.23489 0.0094-0.0094 0.03758 0 0.05637 0 0.03758 0.028187 0.06577 0.046978 0.07517 0.065769 0.14093 0.12214 0.22549 0.30066 0.18791 0.50736zm-1.9119 0.89258c-0.01879-0.018791-0.02819-0.018791-0.03758-0.018791-0.02819 0.018791-0.06577 0.028187-0.10335 0.056374-0.03758 0.028187-0.08456 0.056374-0.13154 0.065769-0.06577 0.028187-0.12214 0.056374-0.18791 0.093956v0.0094c0.02819 0 0.04698 0 0.07517-0.0094 0.07516-0.037583 0.15973-0.037583 0.24429-0.075165 0.01879-0.018791 0.02819-0.018791 0.03758-0.018791 0 0.028187-0.01879 0.037582-0.03758 0.056374-0.01879 0.0094-0.04698 0.018791-0.07516 0.037583-0.08456 0.046978-0.15972 0.084561-0.24429 0.12214-0.08456 0.037583-0.16912 0.065769-0.25368 0.10335h-0.01879c-0.08456 0.028187-0.15973 0.075165-0.24429 0.10335-0.07516 0.018791-0.15972 0.056374-0.23489 0.093956-0.01879 0.018791-0.02819 0.028187-0.05637 0.037583-0.03758 0-0.07517 0.028187-0.12214 0.037582-0.03758 0.028187-0.08456 0.037582-0.14093 0.065769-0.04698 0.018791-0.10335 0.046978-0.16912 0.056374-0.07517 0.028187-0.12214 0.065769-0.18791 0.075165-0.05637 0.0094-0.12214 0.037583-0.16912 0.065769h-0.04698c-0.0094 0-0.0094-0.018791 0-0.028187h0.0094c0.06577-0.037583 0.12214-0.065769 0.18791-0.08456 0.01879 0 0.05637-0.0094 0.08456-0.028187 0.02819-0.0094 0.04698-0.018791 0.06577-0.056374 0.01879 0 0.05637 0 0.08456-0.018791 0.12214-0.037583 0.23489-0.093956 0.33824-0.15973 0.01879 0 0.01879-0.0094 0-0.0094 0 0 0-0.0094-0.0094-0.0094-0.0094 0.0094-0.02819 0-0.03758 0.0094-0.04698 0.0094-0.09396 0.037582-0.13154 0.065769-0.05637 0.018791-0.10335 0.018791-0.15033 0.056374-0.03758 0.0094-0.06577 0.037582-0.09396 0.046978 0 0 0 0.018791-0.01879 0.018791s-0.04698 0-0.07516 0.0094c-0.04698 0.028187-0.08456 0.037582-0.13154 0.065769-0.07516 0.018791-0.15973 0.046978-0.2255 0.08456-0.01879 0.0094-0.04698 0.018791-0.06577 0.037583-0.05637 0-0.07516 0.0094-0.11275 0.037582-0.03758 0.018791-0.08456 0.018791-0.12214 0.046978-0.08456 0.037582-0.17852 0.075165-0.27247 0.11275-0.03758 0.018791-0.07516 0.028187-0.12214 0.046978-0.02819 0-0.04698 0-0.06577-0.028187-0.0094-0.046978-0.03758-0.093956-0.05637-0.15033-0.0094-0.056374-0.03758-0.10335-0.06577-0.16912-0.0094-0.0094-0.0094-0.037583-0.0094-0.056374-0.0094-0.028187-0.0094-0.056374-0.02819-0.075165-0.01879-0.065769-0.03758-0.11275-0.06577-0.17852-0.03758-0.056374-0.06577-0.13154-0.09396-0.2161-0.0094-0.028187-0.01879-0.046978-0.0094-0.075165 0-0.028187 0-0.037582 0.02819-0.037582 0.0094-0.0094 0.03758-0.0094 0.05637-0.018791 0.04698-0.028187 0.11275-0.065769 0.17852-0.075165 0.06577-0.028187 0.12214-0.065769 0.18791-0.084561 0.01879-0.018791 0.02819-0.018791 0.03758-0.028187 0.05637-0.0094 0.10335-0.037582 0.14093-0.065769 0.01879-0.0094 0.03758-0.037582 0.05637-0.046978 0.02819-0.0094 0.06577-0.018791 0.10335-0.037583 0.04698-0.0094 0.11275-0.037582 0.15972-0.056374 0.0094-0.018791 0.03758-0.018791 0.04698-0.018791 0.06577 0 0.11275-0.018791 0.15033-0.056374 0.04698-0.046978 0.10335-0.084561 0.16912-0.12214 0.03758-0.018791 0.04698-0.037583 0.08456-0.046978 0.06577-0.018791 0.10335-0.056374 0.14093-0.10335 0.0094-0.0094 0.0094-0.028187 0.0094-0.028187-0.02819-0.084561-0.06577-0.15973-0.14093-0.2067l-0.0094-0.0094c-0.04698-0.046978-0.11275-0.084561-0.17852-0.084561-0.02819 0-0.05637-0.018791-0.07516-0.028187-0.03758-0.028187-0.07517-0.046978-0.12214-0.0094h-0.09396c-0.06577 0.0094-0.14093 0-0.2161 0.037583h-0.04698c-0.07516-0.018791-0.15033 0.018791-0.2255 0.037582-0.03758 0.0094-0.07516 0.018791-0.11275 0.037582-0.03758 0-0.08456 0.0094-0.12214 0.028187-0.05637 0.028187-0.12214 0.056374-0.16912 0.093956-0.03758 0.046978-0.08456 0.084561-0.12214 0.13154-0.02819 0.046978-0.06577 0.08456-0.08456 0.13154-0.01879 0.037583-0.03758 0.075165-0.03758 0.11275v0.15033c0 0.028187 0 0.046978-0.0094 0.075165-0.02819 0.037582-0.01879 0.056374 0 0.093956 0.0094 0.028187 0.0094 0.037582-0.01879 0.046978-0.03758 0.037583-0.08456 0.037583-0.13154 0.056374-0.07516 0.037582-0.15973 0.075165-0.24429 0.10335h-0.02819c-0.04698 0-0.09396 0.028187-0.13154 0.056374-0.07517 0.037582-0.15033 0.056374-0.23489 0.084561-0.01879 0.0094-0.03758 0.0094-0.06577 0.018791-0.05637 0.037582-0.12214 0.075165-0.19731 0.10335-0.08456 0.028187-0.14093 0.056374-0.2161 0.093956-0.15033 0.075165-0.28187 0.15033-0.4322 0.2161-0.06577 0.037583-0.12214 0.056374-0.18791 0.093956-0.0094 0-0.04698 0-0.04698-0.0094-0.01879-0.065769-0.08456-0.10335-0.08456-0.17852 0 0-0.0094-0.0094-0.0094-0.018791-0.05637-0.075165-0.06577-0.15033-0.10335-0.22549-0.03758-0.084561-0.04698-0.16912-0.07516-0.24429-0.0094-0.018791-0.0094-0.037582-0.01879-0.046978 0-0.0094-0.01879-0.037583-0.01879-0.046978 0-0.10335-0.01879-0.2161 0.02819-0.31006 0.0094-0.0094 0-0.037583 0-0.065769 0.0094-0.0094 0.0094-0.028187 0.0094-0.046978 0.03758-0.08456 0.09396-0.16912 0.15972-0.2161 0.07517-0.065769 0.14093-0.14093 0.2161-0.17852 0.01879-0.046978 0.08456-0.056374 0.10335-0.093956 0.03758-0.037583 0.10335-0.046978 0.14093-0.084561 0.09396-0.065769 0.19731-0.11275 0.30066-0.15973 0.03758-0.028187 0.07516-0.037582 0.11275-0.075165 0.03758-0.028187 0.08456-0.037582 0.14093-0.065769 0.13154-0.046978 0.28187-0.08456 0.41341-0.14093 0.02819 0 0.04698-0.018791 0.07516-0.018791h0.12214c0.0094 0 0.03758 0.018791 0.03758 0.028187 0 0.028187 0.0094 0.037582 0 0.046978-0.02819 0.028187-0.03758 0.046978-0.06577 0.075165-0.0094 0.0094-0.01879 0.028187-0.01879 0.046978v0.028187c0.04698 0.018791 0.09396 0.037583 0.13154 0.056374 0.02819 0.018791 0.06577 0.018791 0.08456 0.018791 0.03758-0.028187 0.07516-0.037582 0.12214-0.037582 0.02819-0.018791 0.03758-0.037583 0.03758-0.046978v-0.093956c0-0.018791-0.0094-0.056374-0.01879-0.084561-0.05637-0.093956-0.08456-0.2067-0.19731-0.25368-0.02819-0.018791-0.04698-0.037582-0.06577-0.046978-0.0094-0.018791-0.01879-0.028187-0.04698-0.028187-0.06577-0.0094-0.12214-0.046978-0.19731-0.0094-0.0094 0-0.02819 0.0094-0.03758 0.0094h-0.11275c-0.04698 0.0094-0.08456 0.028187-0.12214 0.028187-0.05637 0.0094-0.12214 0.046978-0.16912 0.046978-0.03758 0-0.06577 0.0094-0.08456 0.018791-0.02819 0.018791-0.06577 0.028187-0.08456 0.037582-0.08456 0.028187-0.17852 0.065769-0.26308 0.11275-0.13154 0.075165-0.27247 0.15033-0.40401 0.23489-0.03758 0.028187-0.07516 0.046978-0.09396 0.075165-0.03758 0.037582-0.07517 0.056374-0.11275 0.08456-0.0094 0.0094-0.03758 0.028187-0.04698 0.037583-0.02819 0.046978-0.05637 0.093956-0.10335 0.13154-0.0094 0.018791-0.0094 0.028187-0.01879 0.037583-0.05637 0.075165-0.10335 0.15033-0.11275 0.23489-0.05637 0.065769-0.05637 0.13154-0.05637 0.22549v0.30066 0.065769c0.02819 0.046978 0.02819 0.084561 0.03758 0.13154 0.01879 0.037582 0.02819 0.084561 0.05637 0.14093 0.0094 0.056374 0.04698 0.10335 0.05637 0.17852 0.01879 0.037582 0.03758 0.075165 0.04698 0.11275 0.02819 0.046978 0.03758 0.093956 0.06577 0.13154 0.02819 0.065769 0.04698 0.12214 0.08456 0.18791 0 0.0094 0.0094 0.028187 0.0094 0.037582 0 0.028187 0 0.037582-0.0094 0.046978-0.0094 0.0094-0.01879 0.028187-0.03758 0.037583-0.15973 0.084561-0.31006 0.2067-0.45099 0.31006-0.01879 0.0094-0.02819 0.0094-0.03758 0.018791-0.06577 0.056374-0.12214 0.10335-0.18791 0.15033-0.0094 0.0094-0.03758 0.0094-0.05637 0.0094 0 0.018791-0.01879 0.037582-0.02819 0.037582-0.08456 0.065769-0.15033 0.15033-0.24428 0.18791-0.06577 0.028187-0.10335 0.084561-0.15973 0.11275-0.02819 0.0094-0.03758 0.018791-0.04698 0.037582-0.02819 0.018791-0.03758 0.037582-0.05637 0.046978-0.0094 0.0094-0.01879 0.037582-0.01879 0.046978 0 0.065769-0.03758 0.11275-0.03758 0.16912 0 0.037582-0.02819 0.075165-0.02819 0.13154-0.0094 0.046978 0.02819 0.093956 0.02819 0.14093 0 0.037582 0.0094 0.075165 0.03758 0.10335 0.01879 0.046978 0.04698 0.093956 0.08456 0.13154 0.03758 0.037582 0.08456 0.065769 0.12214 0.075165 0.06577 0.037582 0.11275 0.046978 0.16912 0.056374 0.05637 0.028187 0.10335 0.037583 0.15972 0.037583 0.14093 0 0.28187 0.028187 0.4228-0.037583h0.0094c0.06577 0 0.12214 0 0.18791-0.018791 0.09396-0.0094 0.17852-0.046978 0.27247-0.10335 0.05637-0.037582 0.13154-0.065769 0.17852-0.13154 0.04698-0.037583 0.06577-0.093956 0.11275-0.13154 0.02819-0.056374 0.04698-0.10335 0.07517-0.15033v-0.046978c0.0094-0.037582 0.0094-0.075165 0.01879-0.11275 0.01879-0.0094 0.01879-0.028187 0.01879-0.037582 0-0.065769 0-0.12214-0.01879-0.18791-0.02819-0.056374-0.0094-0.13154-0.01879-0.19731 0 0 0-0.0094-0.0094-0.0094-0.01879-0.046978-0.02819-0.084561-0.03758-0.12214-0.02819-0.093956-0.07517-0.16912-0.09396-0.27247 0-0.018791-0.01879-0.046978-0.02819-0.075165 0-0.0094-0.01879-0.018791-0.01879-0.037583-0.0094-0.018791 0-0.056374 0.02819-0.065769 0-0.018791 0.0094-0.018791 0.01879-0.028187 0.10335-0.046978 0.2161-0.093956 0.31006-0.15973 0.04698-0.037583 0.11275-0.065769 0.16912-0.075165 0.06577-0.018791 0.11275-0.056374 0.17852-0.084561 0.08456-0.028187 0.15973-0.065769 0.23489-0.11275 0.0094-0.0094 0.01879-0.018791 0.03758-0.018791 0.12214-0.028187 0.2255-0.093956 0.33824-0.15033 0.03758-0.0094 0.06577-0.028187 0.10335-0.037582 0.01879-0.028187 0.06577-0.0094 0.09396-0.037583 0.04698-0.0094 0.10335-0.028187 0.13154-0.046978 0.05637-0.028187 0.11275-0.037583 0.16912-0.065769 0.0094 0 0.04698 0.018791 0.04698 0.028187 0.03758 0.037583 0.04698 0.075165 0.05637 0.11275 0.02819 0.056374 0.05637 0.10335 0.06577 0.16912 0.0094 0.075165 0.04698 0.13154 0.08456 0.2067 0.04698 0.037583 0.04698 0.11275 0.07517 0.15973 0.01879 0.037582 0.0094 0.075165 0.01879 0.11275 0.02819 0.037583 0.03758 0.084561 0.05637 0.12214v0.0094c0.0094 0.028187-0.01879 0.065769-0.02819 0.075165-0.02819 0.018791-0.05637 0.018791-0.07517 0.028187-0.14093 0.075165-0.29126 0.15033-0.44159 0.2161-0.04698 0.028187-0.09396 0.065769-0.15033 0.10335-0.08456 0.046978-0.10335 0.12214-0.08456 0.2161 0 0.018791 0.01879 0.037583 0.02819 0.037583h0.03758c0.03758 0 0.04698 0.028187 0.07516 0.056374 0.0094 0.046978 0.03758 0.084561 0.04698 0.12214 0.01879 0.037582 0.05637 0.075165 0.09396 0.08456 0.05637 0.037583 0.10335 0.056374 0.15033 0.093956 0.0094 0 0.02819 0.018791 0.03758 0.018791 0.02819 0 0.04698 0.018791 0.08456 0.037582 0.0094 0.0094 0.02819 0.018791 0.03758 0.018791 0.03758 0 0.06577 0 0.10335 0.0094 0.08456 0.037582 0.15972 0 0.2255-0.0094 0.01879 0 0.02819-0.0094 0.02819-0.018791 0.02819-0.028187 0.06577-0.056374 0.07517-0.093956 0.03758-0.037582 0.05637-0.084561 0.04698-0.14093-0.0094-0.037583-0.02819-0.065769 0-0.10335 0-0.075165 0.0094-0.15973-0.02819-0.23489-0.0094-0.018791 0-0.046978-0.0094-0.056374 0-0.037582-0.01879-0.065769-0.01879-0.10335 0.01879-0.046978 0.06577-0.018791 0.09396-0.046978 0.03758-0.028187 0.08456-0.037583 0.12214-0.046978 0.10335-0.037582 0.19731-0.075165 0.28187-0.11275 0.06577-0.028187 0.12214-0.056374 0.18791-0.08456 0.05637-0.028187 0.12214-0.046978 0.16912-0.075165 0.10335-0.037583 0.18791-0.084561 0.27247-0.13154 0.09396-0.056374 0.19731-0.10335 0.31006-0.14093 0.05637-0.018791 0.10335-0.037583 0.16912-0.056374 0.04698-0.028187 0.09396-0.046978 0.15033-0.084561 0.01879-0.018791 0.04698-0.028187 0.05637-0.028187 0.07516-0.0094 0.12214-0.046978 0.18791-0.075165 0.08456-0.046978 0.16912-0.08456 0.27247-0.12214 0 0 0.0094 0 0.01879-0.0094 0.07516-0.037583 0.15033-0.075165 0.22549-0.11275 0.05637-0.028187 0.09396-0.075165 0.15973-0.093956 0.0094-0.037583 0.03758-0.056374 0.05637-0.065769 0.01879 0 0.03758-0.0094 0.04698-0.028187 0.02819-0.0094 0.05637-0.037583 0.05637-0.056374 0.0094-0.028187 0.0094-0.046978 0.01879-0.065769 0.02819-0.046978 0.01879-0.093956 0.01879-0.14093zm-5.3273 1.757c-0.0094 0.037583 0 0.075165 0.01879 0.093956-0.02819 0.046978-0.01879 0.11275-0.02819 0.15973 0 0.0094-0.0094 0.028187-0.0094 0.028187-0.03758 0.056374-0.06577 0.11275-0.10335 0.15973-0.0094 0.0094-0.01879 0.018791-0.03758 0.018791-0.0094 0.018791-0.01879 0.028187-0.03758 0.037582-0.07517 0.084561-0.17852 0.10335-0.28187 0.14093-0.04698 0-0.07516 0.018791-0.11275 0.037582-0.03758 0-0.06577 0-0.10335 0.018791-0.02819 0.018791-0.06577 0.018791-0.09396 0.018791h-0.18791-0.17852c-0.03758 0-0.07516-0.018791-0.11275-0.028187-0.0094-0.0094-0.02819-0.0094-0.04698-0.0094-0.05637-0.018791-0.12214-0.037582-0.16912-0.093956-0.02819-0.018791-0.02819-0.046978-0.0094-0.065769l0.0094-0.018791c0.0094-0.056374 0.05637-0.08456 0.11275-0.10335 0.0094 0 0.01879 0 0.03758 0.0094 0.0094 0 0.0094 0 0.01879-0.0094 0.01879-0.018791 0.03758-0.028187 0.04698-0.056374 0.02819-0.056374 0.07517-0.093956 0.11275-0.14093 0.02819-0.028187 0.03758-0.056374 0.04698-0.065769 0.02819-0.028187 0.05637-0.028187 0.07517-0.037583 0.07516-0.046978 0.15033-0.084561 0.19731-0.15033 0.01879-0.0094 0.03758-0.037583 0.04698-0.046978 0.09396-0.046978 0.15973-0.11275 0.23489-0.16912 0.01879 0 0.01879 0 0.01879-0.0094 0.10335-0.056374 0.2067-0.14093 0.30066-0.2161 0.02819-0.0094 0.03758-0.0094 0.06577-0.018791 0.0094 0 0.02819 0 0.02819 0.0094 0.01879 0.046978 0.01879 0.093956 0.04698 0.15033 0.01879 0.046978 0.01879 0.093956 0.04698 0.13154 0.02819 0.075165 0.04698 0.15033 0.04698 0.22549zm1.9919-1.7852v-0.037583c0.0094-0.0094 0.02819-0.037582 0.02819-0.046978 0.0094-0.065769 0.04698-0.10335 0.09396-0.14093 0.04698-0.028187 0.11275-0.056374 0.15972-0.10335 0.01879 0 0.02819-0.018791 0.03758-0.018791 0.04698-0.0094 0.10335-0.046978 0.15033-0.037583 0.01879 0 0.03758-0.0094 0.05637-0.018791 0.05637-0.037582 0.11275-0.046978 0.15972-0.065769 0.02819-0.0094 0.05637-0.0094 0.07516-0.0094 0.07517 0 0.15033-0.0094 0.2255 0 0.08456 0 0.14093-0.028187 0.2067-0.075165 0.02819-0.028187 0.04698-0.028187 0.07517-0.028187h0.01879c0 0.018791 0 0.028187-0.0094 0.028187-0.01879 0.037582-0.04698 0.065769-0.08456 0.065769-0.04698 0.0094-0.08456 0.037583-0.13154 0.075165-0.06577 0.028187-0.14093 0.065769-0.2161 0.093956-0.05637 0.028187-0.12214 0.046978-0.17852 0.075165-0.06577 0.018791-0.14093 0.046978-0.19731 0.084561-0.06577 0.028187-0.12214 0.037582-0.18791 0.075165-0.04698 0.018791-0.09396 0.046978-0.15972 0.056374-0.03758 0.018791-0.07516 0.037583-0.11275 0.056374 0 0-0.0094-0.018791-0.0094-0.028187zm0.31006 1.8603c-0.0094 0.028187-0.03758 0.065769-0.08456 0.065769-0.03758 0.018791-0.07516 0.018791-0.11275 0.028187-0.02819 0.0094-0.03758 0.0094-0.06577 0.0094h-0.10335-0.07516c-0.06577 0-0.12214-0.018791-0.18791-0.046978v-0.0094c-0.0094-0.018791 0-0.018791 0-0.028187 0.06577-0.037582 0.12214-0.046978 0.18791-0.075165 0.01879-0.0094 0.05637-0.0094 0.08456-0.037582 0.04698-0.037582 0.11275-0.056374 0.18791-0.056374 0.0094 0 0.02819-0.028187 0.04698-0.028187 0.03758-0.0094 0.05637-0.0094 0.08456 0 0.0094 0 0.02819 0.0094 0.03758 0.028187 0.01879 0.046978 0.01879 0.093956 0 0.15033zm0.09396 0.13154v-0.0094zm0.56373-0.91137-0.0094-0.0094c0.0094-0.018791 0.0094-0.018791 0.02819-0.018791 0.0094 0 0.0094 0.018791 0.0094 0.018791 0 0.0094-0.0094 0.0094-0.02819 0.0094zm0.13154-0.037583h-0.03758v-0.0094c0.0094 0 0.0094-0.0094 0.01879-0.0094h0.02819c-0.0094 0.0094-0.0094 0.0094-0.0094 0.018791zm0.05637-0.037582-0.0094 0.018791h-0.02819c0-0.018791 0-0.018791 0.0094-0.028187h0.02819v0.0094zm2.0858-0.87379v-0.018791l0.01879 0.0094-0.01879 0.0094zm-6.2857 1.4375zm0.04698-0.056374c0.0094-0.0094 0.04698-0.037582 0.04698-0.065769-0.01879-0.0094-0.03758 0-0.05637 0.018791-0.02819 0.018791-0.06577 0.056374-0.10335 0.093956v0.0094h0.06577c0.0094-0.018791 0.01879-0.037582 0.04698-0.056374zm5.8723-1.2778zm-0.11275 0.037582-0.0094 0.0094 0.0094 0.0094c0.03758 0 0.07517-0.018791 0.10335-0.046978 0.0094 0 0.0094 0 0.0094-0.0094h-0.05637c-0.02819 0.0094-0.03758 0.018791-0.05637 0.037582zm-0.16912 0.093957c0.02819 0 0.04698-0.0094 0.04698-0.037582h-0.05637c-0.0094 0.018791-0.02819 0.018791-0.02819 0.037582h0.03758zm0.04698-0.037582zm-0.38522 0.15973c-0.01879 0.018791-0.03758 0-0.06577 0.018791-0.0094 0-0.02819 0.0094-0.02819 0.018791h0.06577c0.0094 0 0.02819-0.0094 0.02819-0.037582zm-0.09396 0.037582h-0.0094 0.0094zm0.09396-0.037582zm0.45099-0.16912c-0.0094-0.0094-0.0094-0.0094-0.02819-0.0094s-0.01879 0.0094-0.03758 0.018791h0.05637c0-0.0094 0.0094-0.0094 0.0094-0.0094zm-0.38522 0.15033h-0.01879c-0.02819 0-0.03758 0.0094-0.03758 0.018791h0.01879c0.01879 0 0.02819-0.0094 0.03758-0.018791zm-0.06577 0.018791h0.0094-0.0094zm0.12214-0.046978s-0.01879-0.0094-0.02819-0.0094c-0.0094 0.0094-0.02819 0.0094-0.02819 0.037582 0.01879-0.018791 0.02819-0.018791 0.03758-0.018791 0.01879 0 0.01879 0 0.01879-0.0094zm-0.05637 0.028187zm-0.16912 0.056374c-0.02819 0-0.04698 0-0.05637 0.037582 0.01879 0 0.05637 0 0.05637-0.037582zm-0.05637 0.037582zm0.45098-0.19731h0.0094-0.0094zm0 0h-0.02819c-0.01879 0-0.03758 0.018791-0.03758 0.028187 0.02819 0 0.05637 0.0094 0.06577-0.028187zm-0.06577 0.028187zm0 0c-0.0094 0.0094-0.01879 0.0094-0.04698 0.0094v0.0094s0.0094 0.018791 0.02819 0.018791c0.0094 0 0.01879-0.018791 0.01879-0.037582zm-5.4307 1.0523zm0.03758-0.037583c0.02819 0 0.03758-0.0094 0.03758-0.037582h0.04698c0.03758-0.028187 0.08456-0.065769 0.12214-0.12214 0.01879-0.0094 0.01879-0.018791 0-0.018791-0.0094-0.018791-0.0094-0.018791-0.01879 0-0.06577 0.037583-0.12214 0.075165-0.15972 0.14093-0.01879 0-0.02819 0.018791-0.02819 0.037582-0.02819 0-0.03758 0.018791-0.03758 0.037583 0.02819 0 0.03758-0.0094 0.03758-0.037583zm-0.23489 0.19731c0.02819 0 0.03758-0.0094 0.03758-0.037582-0.01879 0-0.03758 0.018791-0.03758 0.037582zm0.03758-0.037582zm-0.05637 0.056374 0.0094 0.0094c0.0094-0.0094 0.0094-0.0094 0.0094-0.028187-0.0094 0-0.0094 0-0.01879 0.018791zm0.01879-0.018791zm5.224-1.0335s0-0.0094 0.01879-0.0094c-0.01879 0-0.01879 0.0094-0.02819 0.0094h0.0094zm-1.2402-1.0147h-0.0094l0.0094 0.0094zm-0.23489 0.093956h-0.0094l0.0094 0.018791zm-2.8124-0.0094c-0.02819-0.0094-0.05637-0.028187-0.08456-0.056374-0.07517-0.10335-0.15033-0.11275-0.27247-0.075165-0.06577 0.046978-0.15972 0.093956-0.23489 0.12214-0.09396 0.037582-0.17852 0.046978-0.27247 0.10335-0.29126 0.12214-0.61071 0.28187-0.92077 0.41341-0.05637 0.018791-0.10335 0.018791-0.12214 0.056374-0.09396 0.037582-0.17852 0.084561-0.24428 0.15033-0.04698 0.056374-0.04698 0.056374-0.09396 0-0.15973 0.08456-0.30066 0.15973-0.47918 0.24429-0.15033 0.046978-0.31945 0.15033-0.47918 0.17852-0.18791 0.046978-0.39462 0.11275-0.60132 0.11275-0.09396 0.056374-0.2161 0-0.31945-0.028187-0.06577-0.028187-0.10335-0.084561-0.07517-0.17852 0.08456-0.24429 0.27247-0.44159 0.4228-0.65769 0.03758-0.037583 0.05637-0.037583 0.08456-0.037583 0.15033 0 0.30066 0.028187 0.4228 0.028187 0.08456 0 0.18791 0.0094 0.27247-0.028187 0.31006-0.046978 0.62011-0.14093 0.87379-0.34764l0.13154-0.084561c0.18791-0.075165 0.26308-0.24429 0.38522-0.39462 0.09396-0.10335 0.09396-0.23489 0.01879-0.36643-0.02819-0.046978-0.07516-0.14093-0.15033-0.2067-0.0094-0.018791-0.06577-0.028187-0.10335-0.037583-0.03758-0.028187-0.06577 0-0.08456-0.028187-0.11275-0.075165-0.2161-0.056374-0.33824 0.028187-0.08456 0.037583-0.19731 0.046978-0.28187 0.084561-0.12214 0.018791-0.25368 0.075165-0.33824 0.14093-0.31945 0.16912-0.59192 0.38522-0.855 0.62951-0.28187 0.22549-0.50736 0.49797-0.65769 0.83621l-0.06577 0.12214c-0.03758 0.16912-0.03758 0.2067 0 0.41341 0.03758 0.11275 0.08456 0.23489 0.19731 0.31945 0.06577 0.065769 0.14094 0.11275 0.24429 0.14093 0.15973 0.056374 0.31945 0.12214 0.50736 0.046978 0.03758-0.046978 0.07517-0.046978 0.13154-0.065769 0.32885-0.046978 0.6389-0.15973 0.92077-0.31945 0.19731-0.093956 0.40401-0.18791 0.61072-0.27247 0.19731-0.11275 0.4322-0.15033 0.62011-0.29126 0.0094-0.018791 0.04698-0.018791 0.07516-0.037582 0.2255-0.093956 0.46038-0.17852 0.69528-0.28187 0.15973-0.065769 0.29126-0.14093 0.45099-0.15973 0.0094 0 0.05637-0.0094 0.05637-0.028187 0.05637-0.046978 0.01879-0.15033-0.04698-0.18791zm-3.5703 0.11275 0.25368-0.24429c0.18791-0.14093 0.37582-0.30066 0.61072-0.41341 0.17852-0.11275 0.38522-0.16912 0.59192-0.18791 0.05637 0 0.10335-0.0094 0.11275-0.046978 0.0094-0.028187 0.04698-0.065769 0.07516-0.037583 0.03758 0.037583 0.07517 0.056374 0.04698 0.10335 0 0.046978 0 0.10335-0.02819 0.13154-0.04698 0.11275-0.13154 0.22549-0.23489 0.28187-0.19731 0.15033-0.40401 0.26308-0.65769 0.33824-0.12214 0.056374-0.2067 0.084561-0.31945 0.12214-0.07517 0.018791-0.18791 0.028187-0.27247 0.046978v-0.018791c-0.04698 0-0.08456 0-0.12214 0.018791-0.02819 0-0.08456 0.028187-0.11275 0-0.0094-0.028187 0.04698-0.08456 0.05637-0.093956zm0.25911-0.37582c-0.0094-0.0094-0.0094-0.046978-0.0094-0.065769-0.02819-0.056374-0.05637-0.12214-0.14093-0.12214-0.0094 0-0.01879-0.028187-0.06577-0.037582-0.08456-0.11275-0.22549-0.15033-0.33824-0.037583-0.04698 0.046978-0.07516 0.10335-0.16912 0.14093l-0.58253 0.24429c-0.47918 0.2161-0.93956 0.44159-1.4281 0.62011-0.47918 0.22549-0.97714 0.45099-1.5033 0.62011-0.09396 0.037583-0.19731 0.075165-0.29126 0.093956-0.18791 0.0094-0.36643 0.046978-0.52616-0.018791-0.07517-0.037582-0.10335-0.075165-0.07517-0.15973 0.03758-0.24429 0.15973-0.47918 0.29126-0.69528 0.09396-0.14093 0.2067-0.27247 0.31006-0.41341 0.08456-0.093956 0.16912-0.17852 0.27247-0.26308 0.04698-0.028187 0.07517-0.065769 0.13154-0.10335 0.18791-0.11275 0.38522-0.15033 0.58253-0.17852 0.18791 0 0.29126 0.08456 0.33824 0.25368 0.02819 0.075165 0.04698 0.16912 0.0094 0.26308-0.0094 0.028187 0 0.065769 0 0.12214 0 0.046978 0.01879 0.075165 0.06577 0.12214 0.07517 0.028187 0.15033 0.046978 0.23489 0 0.07517-0.065769 0.11275-0.14093 0.10335-0.24429-0.01879-0.15033-0.07517-0.28187-0.15972-0.38522-0.03758-0.028187-0.06577-0.065769-0.10335-0.13154-0.10335-0.14093-0.26308-0.22549-0.41341-0.31006-0.08456-0.046978-0.19731-0.065769-0.28187-0.084561-0.24429-0.0094-0.4322 0.065769-0.62011 0.22549-0.03758 0.037583-0.10335 0.08456-0.18791 0.15033-0.18791 0.16912-0.35703 0.38522-0.50736 0.62951-0.06577 0.10335-0.14093 0.22549-0.18791 0.34764-0.05637 0.10335-0.11275 0.22549-0.15033 0.34764-0.06577 0.16912-0.03758 0.31945 0.0094 0.46978 0.10335 0.31945 0.47918 0.49797 0.71407 0.49797 0.16912-0.0094 0.38522-0.028187 0.58253-0.093956 0.13154-0.028187 0.26308-0.10335 0.39462-0.14093 0.18791-0.037582 0.36643-0.15973 0.56374-0.2067 0.24429-0.15033 0.51676-0.2067 0.75165-0.35703 0 0 0.02819 0 0.02819-0.018791 0.35703-0.15033 0.72346-0.30066 1.0711-0.46978 0.15972-0.065769 0.31945-0.14093 0.47918-0.2161l0.31005-0.13154 0.49797-0.2067zm-0.60132 0.046978c-0.02819 0.028187-0.08456 0.065769-0.12214 0.065769-0.10335 0.0094-0.2067 0.084561-0.29126 0.13154-0.2255 0.075165-0.45099 0.16912-0.6483 0.26308l-0.58253 0.26308-0.41341 0.11275c0-0.065769 0.03758-0.084561 0.10335-0.084561 0.16912-0.056374 0.34764-0.16912 0.53555-0.23489 0.16912-0.093956 0.35703-0.16912 0.54495-0.25368 0.12214-0.046978 0.24429-0.11275 0.39462-0.15973 0.01879 0 0.04698-0.0094 0.06577-0.0094 0.11275-0.093956 0.26308-0.14093 0.39462-0.18791 0.04698-0.018791 0.11275-0.065769 0.17852-0.028187-0.02819 0.075165-0.11275 0.075165-0.15973 0.12214zm-2.208 0.88319c0.02819-0.046978 0.09396-0.028187 0.14093-0.028187-0.03758 0.046978-0.07517 0.028187-0.14093 0.028187zm-1.7234-0.93017c-0.0094-0.0094-0.0094-0.046978-0.0094-0.065769-0.02819-0.056374-0.05637-0.12214-0.14093-0.12214-0.0094 0-0.01879-0.028187-0.06577-0.037582-0.08456-0.11275-0.22549-0.15033-0.33824-0.037583-0.04698 0.046978-0.07517 0.10335-0.16912 0.14093l-0.58252 0.24429c-0.47918 0.2161-0.93956 0.44159-1.4281 0.62011-0.47918 0.22549-0.97714 0.45099-1.5033 0.62011-0.093956 0.037582-0.19731 0.075165-0.29126 0.093956-0.18791 0.0093956-0.36643 0.046978-0.52615-0.018791-0.075165-0.037582-0.10335-0.075165-0.075165-0.15973 0.037582-0.24429 0.15973-0.47918 0.29126-0.69528 0.093956-0.14093 0.2067-0.27247 0.31006-0.41341 0.084561-0.093956 0.16912-0.17852 0.27247-0.26308 0.046978-0.028187 0.075165-0.065769 0.13154-0.10335 0.18791-0.11275 0.38522-0.15033 0.58253-0.17852 0.18791 0 0.29126 0.08456 0.33824 0.25368 0.028187 0.075165 0.046978 0.16912 0.0094 0.26308-0.0094 0.028187 0 0.065769 0 0.12214 0 0.046978 0.018791 0.075165 0.065769 0.12214 0.075165 0.028187 0.15033 0.046978 0.23489 0 0.075161-0.065769 0.11274-0.14093 0.10335-0.24429-0.018791-0.15033-0.075165-0.28187-0.15973-0.38522-0.037582-0.028187-0.065769-0.065769-0.10335-0.13154-0.10335-0.14093-0.26308-0.22549-0.41341-0.31006-0.08456-0.046978-0.19731-0.065769-0.28187-0.08456-0.24429-0.0093956-0.4322 0.065769-0.62011 0.22549-0.037582 0.037582-0.10335 0.08456-0.18791 0.15033-0.18791 0.16912-0.35703 0.38522-0.50736 0.62951-0.065769 0.10335-0.14093 0.22549-0.18791 0.34764-0.056374 0.10335-0.11275 0.22549-0.15033 0.34764-0.065769 0.16912-0.037583 0.31945 0.0094 0.46978 0.10335 0.31945 0.47918 0.49797 0.71407 0.49797 0.16912-0.0094 0.38522-0.028187 0.58253-0.093956 0.13153-0.028187 0.26307-0.10335 0.39461-0.14093 0.18791-0.037582 0.36643-0.15973 0.56374-0.2067 0.24429-0.15033 0.51676-0.2067 0.75165-0.35703 0 0 0.028187 0 0.028187-0.018791 0.35703-0.15033 0.72346-0.30066 1.0711-0.46978 0.15972-0.065769 0.31945-0.14093 0.47918-0.2161l0.31006-0.13154 0.49797-0.2067zm-0.60132 0.046978c-0.02819 0.028187-0.08456 0.065769-0.12214 0.065769-0.10335 0.0094-0.2067 0.084561-0.29126 0.13154-0.22549 0.075165-0.45099 0.16912-0.6483 0.26308l-0.58253 0.26308-0.41341 0.11275c0-0.065769 0.037582-0.084561 0.10335-0.084561 0.16912-0.056374 0.34764-0.16912 0.53555-0.23489 0.16912-0.093956 0.35703-0.16912 0.54495-0.25368 0.12214-0.046978 0.24428-0.11275 0.39462-0.15973 0.01879 0 0.04698-0.0094 0.06577-0.0094 0.11275-0.093956 0.26308-0.14093 0.39462-0.18791 0.04698-0.018791 0.11275-0.065769 0.17852-0.028187-0.02819 0.075165-0.11275 0.075165-0.15973 0.12214zm-2.208 0.88319c0.028187-0.046978 0.093956-0.028187 0.14093-0.028187-0.037582 0.046978-0.075165 0.028187-0.14093 0.028187zm-2.2203-0.61071c0.018791-0.028187 0.028187-0.037582 0.028187-0.037582-0.065769-0.018791-0.14093-0.028187-0.2161-0.056374v-0.0094c0.15033-0.056374 0.32885-0.12214 0.49797-0.12214 0.0094-0.018791 0.028187-0.028187 0.037582-0.037582 0 0 0-0.028187 0.0094-0.037583l-0.018795-0.028182c-0.028187 0.018791-0.046978 0.018791-0.075165 0.018791-0.12214 0.046978-0.26308 0.065769-0.37582 0.093956-0.51676 0.15973-1.0147 0.37582-1.5315 0.57313l-0.50736 0.22549c-0.23489 0.093956-0.46978 0.15033-0.70467 0.15033-0.084561 0-0.15033 0-0.23489-0.028187-0.046978-0.075165 0.056374-0.10335 0.056374-0.18791 0.018791-0.084561 0.056374-0.15973 0.093956-0.23489 0.046978-0.12214 0.10335-0.26308 0.16912-0.38522 0.028187-0.084561 0.018791-0.19731 0.065769-0.29126 0.046978-0.028187 0-0.10335 0.018791-0.15033 0-0.065769-0.12214-0.065769-0.065769-0.14093-0.028187-0.0094-0.056374-0.0094-0.065769-0.028187-0.08456-0.046978-0.18791-0.0094-0.26308-0.12214-0.0094 0-0.037582 0-0.056374 0.018791-0.028187 0.0094-0.056374 0.037582-0.10335 0.056374-0.19731 0.12214-0.38522 0.24429-0.58253 0.38522-0.26308 0.18791-0.52615 0.37582-0.79863 0.54495-0.24429 0.17852-0.50736 0.34764-0.77984 0.47918-0.075165 0.028187-0.14093 0.08456-0.22549 0.08456-0.046978-0.028187-0.046978-0.028187 0.14093-0.2161 0.056374-0.037582 0.018791-0.13154 0.093956-0.16912 0.15033-0.15033 0.26308-0.31006 0.44159-0.44159 0.12214-0.12214 0.24429-0.2161 0.32885-0.32885 0.18791-0.16912 0.34764-0.32885 0.58253-0.45099 0.15033-0.046978 0.33824-0.16912 0.58253-0.093956 0.065769 0.018791 0.075165-0.056374 0.028187-0.12214-0.065769-0.11275-0.34764-0.24429-0.47918-0.17852-0.22549 0.065769-0.45099 0.13154-0.6483 0.26308-0.23489 0.16912-0.45099 0.31006-0.6483 0.50736s-0.4228 0.40401-0.62011 0.6389c-0.065769 0.10335-0.15973 0.2067-0.22549 0.30066-0.037582 0.075165-0.075165 0.18791-0.065769 0.29126 0.037582 0.28187 0.13154 0.4228 0.38522 0.46978 0.10335 0.0094 0.2067 0 0.31006 0 0.028187 0 0.065769-0.028187 0.093956-0.037582 0.16912-0.10335 0.34764-0.19731 0.50736-0.31945 0.15033-0.075165 0.28187-0.19731 0.4228-0.30066 0.11275-0.075165 0.24429-0.15973 0.37582-0.23489l0.66709-0.46978c0.0094-0.018791 0.0094-0.018791 0.037583 0.0094v0.018791c-0.037583 0.13154-0.093956 0.24429-0.11275 0.37582-0.046978 0.22549-0.075165 0.45099 0.11275 0.6483 0.0094 0.046978 0.028187 0.075165 0.037582 0.11275 0.046978 0.12214 0.15973 0.15973 0.26308 0.19731 0.11275 0.037582 0.23489 0.10335 0.36643 0.0094h0.093956c0.15973-0.037591 0.31006-0.056382 0.46038-0.084569 0.2067-0.046978 0.39462-0.12214 0.58253-0.23489l0.27247-0.093956c0.065769-0.028187 0.075165-0.13154 0.18791-0.12214h0.028187c0.056374-0.075165 0.13154-0.15973 0.24429-0.17852h0.0094v-0.0094c-0.10335 0.028187-0.19731 0.065769-0.28187 0.093956 0 0-0.018791-0.028187-0.037582-0.028187 0-0.0094 0-0.0094 0.018791-0.037582 0.07516-0.037578 0.40401-0.16912 0.59192-0.23489 0.065769-0.08456 0.15973-0.15033 0.27247-0.16912 0.056374-0.075165 0.14093-0.10335 0.2067-0.11275zm-1.9919 0.8644h-0.028187c-0.16912-0.093956-0.29126 0.018791-0.4228 0.037583-0.018791 0-0.018791-0.0094-0.018791-0.0094-0.018791 0-0.018791-0.0094-0.018791-0.0094v-0.018791c0.037583-0.018791 0.046978-0.037582 0.056374-0.037582 0.2067-0.046978 0.38522-0.093956 0.57313-0.13154 0.075165-0.018791 0.14093 0 0.2067 0-0.093956 0.10335-0.25368 0.10335-0.34764 0.16912zm1.3812-0.81742v-0.0094c0.13154-0.065765 0.26308-0.13153 0.4228-0.10335h-0.0094c-0.14093 0.065769-0.27247 0.10335-0.4134 0.11275zm-0.39462 0.17852c-0.065769 0.056374-0.15973 0.084561-0.23489 0.065769 0.065769-0.08456 0.13154-0.093956 0.23489-0.08456zm0-0.028187c0.075165-0.065769 0.14093-0.10335 0.23489-0.08456-0.056374 0.08456-0.13154 0.093956-0.23489 0.08456zm-2.5462-0.62011c0.037583-0.075165 0.056374-0.10335 0.14093-0.093956-0.028187 0.075165-0.084561 0.093956-0.14093 0.093956zm-0.29126 0.19731c0.028187-0.075165 0.065769-0.10335 0.14093-0.10335-0.037582 0.075165-0.075165 0.10335-0.14093 0.10335zm0.4322-0.30066c0.018791-0.065769 0.065769-0.084561 0.13154-0.084561-0.0094 0.065769-0.065769 0.093956-0.13154 0.084561zm-0.72346 0.48857c0.037583-0.065769 0.08456-0.093956 0.13154-0.093956-0.0094 0.065769-0.046978 0.10335-0.13154 0.093956zm3.3918 0.15033c0-0.018791 0.0094-0.065769 0.018791-0.065769h0.11275c-0.046978 0.084561-0.093956 0.065769-0.13154 0.065769zm-3.2321-0.26308c0.0094-0.065769 0.065769-0.075165 0.13154-0.075165-0.0094 0.065769-0.093956 0.075165-0.13154 0.075165zm0.28187-0.17852c0.018791-0.065769 0.065769-0.08456 0.14093-0.093956-0.037582 0.056374-0.075165 0.093956-0.14093 0.093956zm2.3865 0.67648h-0.08456c0.028187-0.065769 0.10335-0.037582 0.13154-0.056374 0 0.037583-0.0094 0.056374-0.046979 0.056374zm-2.969-0.30066c0.028187-0.037583 0.075165-0.08456 0.12214-0.08456-0.0094 0.056374-0.056374 0.08456-0.12214 0.08456zm4.3032-0.17852c-0.028187 0.037582 0 0.037582 0.037582 0.065769h0.0094c0-0.018791 0.018791-0.046978 0.037583-0.065769-0.028187 0-0.037583-0.018791-0.084561 0zm-1.4187 0.80802h-0.075165c0-0.028187 0.028187-0.046978 0.065769-0.046978 0.0094 0 0.0094 0.018791 0.018791 0.018791 0 0.018791-0.0094 0.028187-0.0094 0.028187zm-0.18791-0.24429s-0.0094 0-0.028187-0.028187h0.018791c0.0094 0 0.028187 0 0.028187 0.028187zm-2.7341-0.33824c0-0.0094 0.018791-0.046978 0.028187-0.046978 0 0.046978-0.0094 0.046978-0.028187 0.046978zm2.9126 0.28187-0.028187-0.018791h0.028187zm-0.11275 0.32885c-0.0094-0.028187 0-0.028187 0.0094-0.028187 0 0.018791-0.0094 0.018791-0.0094 0.028187zm-2.8375-0.57313v-0.018791h0.018791zm4.4911-0.28187c-0.018791 0-0.018791 0-0.018791 0.018791 0-0.0094 0.0094-0.0094 0.018791-0.018791zm-0.55434 0.23489h0.018791v0.0094zm-0.35703 0.40401s0.0094-0.0094 0.018791-0.0094c-0.0094 0-0.018791 0.0094-0.018791 0.0094zm-2.4804-1.1275v-0.0094h0.0094z" fill="#f95b5b" stroke-width="0"/>
  </g>
 </g>
</svg>
