<svg width="210mm" height="297mm" version="1.1" viewBox="0 0 210 297" xmlns="http://www.w3.org/2000/svg">
 <g stroke-width="0">
  <path d="m128.6 200.54c-5.9546 2.0379-10.257 6.8622-13.537 12.033m2.2561-21.308c3.9704 2.8214 7.6533 6.0316 11.28 9.2751m-66.68 1.5041c22.225-0.52615 44.516 0.69236 66.68-1.5041" fill="none" style="paint-order:markers fill stroke"/>
  <path d="m115.02 212.45c0.052 0.022-0.148 0.022-0.129 9e-3 0.057-0.015 0.074-0.101 0.032-0.06-0.072 0.02-0.096-0.171-0.016-0.179-0.068-0.096 0.101 0.012 0.086-8e-3 -0.141-0.034-0.122-0.172-0.186-0.174-0.092-0.071 9e-3 8e-3 0.041-0.091-0.015 0.031 0.201-0.189 0.215-0.239 0.086-0.066-7e-3 -0.039-0.043-0.199 0.021-0.097-0.15-0.125-0.072-0.168 0.047 0.018 0.079-0.033 0.079-0.159 0.137-0.098 0.128-0.316 0.174-0.35 0.036-0.055-0.05-0.118 1e-3 -0.155-0.069-0.041 0.102-0.3 0.064-0.384 0.072-0.118 0.202-0.147 0.245-0.141 0.17-0.106 0.034-0.196 0.116-0.313 0.014-0.151 0.138-0.249 0.082-0.368-0.014-0.071 0.173-0.059 0.299-0.216 0.06-0.128 0.117-0.325 0.083-0.438 0.105-0.06 0.217-0.146 0.328-0.295 0.147-0.096 0.135-0.214 0.149-0.277 0.065-0.195 0.216-0.285 0.228-0.433 0.051-0.13 0.076-0.214 0.193-0.354 0.075-0.193 0.159-0.29 0.216-0.333 0.141-0.029 0.264-0.129 0.319-0.348 0.127-0.208 0.057-0.459 0.159-0.449 0.047-0.081 0.282-0.39 0.4-0.467 0.02-0.078 0.243-0.218 0.291-0.396-0.019-0.15 0.201 0.067 0.307-0.138 0.168-0.123 0.246-0.324 0.458-0.381 0.029-0.191 0.38-0.306 0.387-0.411 0.174-0.148 0.235-0.389 0.283-0.529 0.211-0.045 0.179 0.014 0.306-0.178 0.017-0.137 0.332-0.347 0.474-0.332 0.024-0.124 0.055-0.244 0.228-0.387 0.058-0.144 0.429-0.01 0.56-0.158 0.086-0.161 0.266-0.256 0.402-0.325 0.116-0.075 0.159-0.341 0.348-0.389 0.059-0.096 0.34-0.169 0.345-0.305-6e-3 -0.105 0.24-0.105 0.41-0.082 0-0.121 0.315-0.255 0.373-0.352 0.162 0.011 0.057-0.119 0.254-0.132 0.151-0.013 0.387-0.044 0.535-0.093 0.192 9e-3 0.315-0.16 0.463-0.225 0.138-0.079 0.115-0.106 0.193-0.217 0.112-0.053 0.404-0.157 0.469-0.092 0.048-0.091 0.111-0.038 0.263-0.07 0.066-0.03 0.125-0.084 0.304-0.101 0.098-0.011 0.504-0.168 0.517-0.169 0.168-0.082 0.092-0.133 0.143-0.091-9e-3 -0.014 0.391 7e-3 0.447 0.065 0.062 0.101 0.084-0.102 0.092-0.121 0.092-0.039 0.234-0.22 0.28-0.091 0.064-0.042 0.063-0.133 0.142-0.012 0.051-0.086 0.236 0.257 0.291 0.138 0.033 0.142 0.214-0.035 0.217 0.064 0.087 0.096 0.167-0.033 0.238-0.052 0.061-0.06-0.065-8e-3 0.05-0.061 0.081-0.132 0.108-0.149 0.135-0.034 0.061-0.034 0.068 0.123 0.105 0.057 0.076 0.035 0.015 0.061 0.123 0.149-0.016 0.153 0.027-0.021 0.074 0.105-0.044-0.031 0.063 0.108-2e-3 0.139 0.041-0.034 0.052-0.039-0.026 0.032 0.018 0.061 0.049 0.142 0.046 0.129-0.062 0.012-0.201-0.198-0.18-0.052 3e-3 -0.014 0.057 0.032 0.151 0.141-0.104-0.024-0.169-0.021-0.181 0.031 0.016-0.037-0.069 0.161-0.075 0.198 4e-3 0.037-0.013 0.011-0.134 0.094-0.038-0.053-0.034 0.09-0.03 0.229 9e-3 0.129-0.196-0.076-0.162 0.042-0.072-0.011-0.199-0.124-0.191 0.025-0.126 0.099 0.065 0.301-0.041 0.295-0.09 0.09-0.201-0.133-0.312 0.038-0.053 6e-3 -0.143 0.265-0.171 0.279-0.086-0.052-0.224 0.076-0.21 0.207-0.189 0.044-0.129 0.085-0.219 0.076-0.141 1e-3 -0.128 0.164-0.216 0.229-0.049 0.105-0.123 0.127-0.176 0.237-0.102 0.071-0.269 0.122-0.427 0.18-0.074 0.02-0.131 0.233-0.224 0.189-0.087 0.127-0.124 0.25-0.252 0.213-0.126 0.136-0.211 0.1-0.37 0.097-0.079 0.064-0.099 0.182-0.219 0.406 5e-3 0.14-0.31 0.117-0.338 0.17-0.086 0.195-0.254-0.013-0.321 0.168-0.082 0.173-0.017 0.199-0.112 0.352-0.084 0.153-0.388 0.236-0.487 0.304-0.261 0.058-0.151 7e-3 -0.238 0.136-0.099 0.04-0.256 0.173-0.401 0.339-0.07 0.175-0.105 0.203-0.322 0.28-0.087 0.071-0.241 0.15-0.348 0.389-0.099 0.104-0.26 0.037-0.379 0.201 0.034 0.131-0.112 0.368-0.223 0.395-3e-3 0.161-0.055 0.257-0.235 0.309-0.145 0.118-0.262 0.16-0.357 0.346-0.091 0.042-0.184 0.027-0.343 0.215-0.015 0.078-0.248 0.118-0.278 0.283-0.172 0.016-0.205 0.189-0.4 0.272-0.059 0.198-0.125 0.267-0.179 0.401-0.225 0.07-0.334-0.027-0.395 0.202-7e-3 0.148-0.189 0.168-0.348 0.31-0.055 0.154-0.158 0.235-0.232 0.404-0.146 6e-3 -0.079 0.215-0.156 0.246-0.051 0.155-0.27 0.124-0.329 0.321-0.087 0.102-0.055 0.141-0.168 0.187-0.176 0.101-0.254 0.188-0.267 0.246-0.132 0.044-0.304 0.124-0.378 0.255-0.099-0.029-0.211 0.025-0.315 0.199-0.096 0.076-0.092 0.153-0.255 0.254-0.037 0.094-0.035 0.11-0.022 0.163-0.129 0.1-0.061 0.137-0.236 0.147-0.078-0.039-0.188 0.301-0.257 0.311-0.095 3e-3 -0.069 0.02-0.198 0.126-0.05 0.106-0.17-0.084-0.178 0.063-0.108-0.086 0.07 0.238-0.112 0.277-0.065 0.062-0.209-8e-3 -0.253-0.079m12.573-11.575c0.03-0.047-0.014 0.136-0.02 0.118-1e-3 -0.052-0.071-0.069-0.045-0.03 1e-3 0.066-0.168 0.086-0.158 0.012-0.097 0.062 0.033-0.092 0.012-0.078-0.06 0.128-0.174 0.108-0.19 0.167-0.081 0.084 9e-3 -8e-3 -0.07-0.038 0.024 0.014-0.119-0.187-0.159-0.201-0.039-0.08-0.035 6e-3 -0.18 0.037-0.079-0.02-0.141 0.136-0.161 0.064 0.026-0.043-0.011-0.073-0.119-0.075-0.056-0.126-0.245-0.121-0.264-0.164-0.04-0.033-0.112 0.044-0.133-3e-3 -0.05 0.063-0.237-0.097-0.318-0.063-0.085-0.068-0.083-0.188-0.068-0.227-0.054-0.157-0.133-1e-3 -0.221-0.071-0.128-9e-3 -0.193-0.118-0.306-0.063-0.065 0.015-0.022-0.156-0.137-0.267-0.102-0.05-0.264-0.096-0.367-0.061-0.035-0.094-0.091-0.194-0.202-0.29-0.059-0.131-0.163-0.116-0.215-0.128-0.159-0.052-0.169-0.144-0.298-0.141-0.108-0.034-0.179-0.05-0.289-0.144-0.16-0.051-0.236-0.118-0.268-0.167-8e-3 -0.125-0.082-0.228-0.268-0.259-0.169-0.098-0.398-0.011-0.377-0.105-0.066-0.035-0.257-0.176-0.317-0.273-0.067-7e-3 -0.176-0.19-0.33-0.208-0.134 0.037 0.073-0.192-0.101-0.26-0.096-0.135-0.234-0.143-0.277-0.323-0.169 7e-3 -0.258-0.289-0.351-0.277-0.125-0.131-0.252-0.066-0.377-0.075-0.048-0.177 6e-3 -0.163-0.167-0.23-0.121 0.019-0.317-0.211-0.309-0.341-0.11 8e-3 -0.172 0.052-0.309-0.059-0.131-0.01-0.041-0.375-0.181-0.448-0.147-0.03-0.2-0.124-0.275-0.22-0.08-0.076-0.316-0.027-0.38-0.175-0.091-0.019-0.187-0.239-0.306-0.199-0.091 0.039-0.076-0.127-0.083-0.279-0.105 0.044-0.271-0.174-0.364-0.187-0.017-0.141-0.112-5e-3 -0.155-0.166-0.036-0.123-0.025-0.232-0.101-0.331-0.038-0.161-0.209-0.186-0.299-0.278-0.099-0.077-0.116-0.047-0.228-0.06-0.071-0.068-0.194-0.21-0.159-0.293-0.088 6e-3 -0.062-0.07-0.132-0.174-0.044-0.038-0.105-0.058-0.171-0.19-0.036-0.072-0.253-0.275-0.257-0.284-0.123-0.084-0.139 1e-3 -0.122-0.06-9e-3 0.014-0.125-0.301-0.097-0.375 0.061-0.101-0.11-9e-3 -0.127-5e-3 -0.062-0.049-0.219-0.028-0.136-0.137-0.057-0.022-0.128 0.031-0.064-0.096-0.087 0.013 0.112-0.321-3e-3 -0.292 0.099-0.107-0.109-0.135-0.032-0.195 0.041-0.118-0.09-0.101-0.132-0.142-0.071-9e-3 0.018 0.052-0.067 0-0.134 0.017-0.158 8e-3 -0.078-0.079-0.05-0.024 0.07-0.121 5e-3 -0.109-2e-3 -0.076 0.042-0.047 0.068-0.176 0.127-0.078-0.026-7e-3 0.055-0.116-8e-3 0.05 0.06-0.108 0.11-0.079-0.043-0.01-0.051-0.015 0.034 0 0.042-0.048 0.093-0.118 0.084-0.108 0.033 0.037-0.079 0.261 0.028 0.16-0.012 6e-3 3e-3 -0.059 0.052-0.191 0.022 0.089 0.049 0.135 0.094 0.113-0.035 0.011 0.153-0.043 0.184-0.061 0.028-0.025 0.013 3e-3 0.125 0.043-0.027 0.058 0.083-0.028 0.19-0.112 0.098-0.082 0.016 0.187 0.095 0.093 0.019 0.058-0.02 0.217 0.093 0.124 0.126 0.034 0.248-0.196 0.278-0.112 0.103 0.02-0.04 0.224 0.135 0.216 0.022 0.038 0.261-0.033 0.282-0.02-0.013 0.094 0.135 0.13 0.237 0.049 0.098 0.12 0.153 0.083 0.171 0.158 0.042 0.111 0.172 0.021 0.251 0.058 0.1-0.013 0.139 0.035 0.245 0.023 0.088 0.046 0.177 0.153 0.27 0.249 0.038 0.049 0.272 0.037 0.257 0.133 0.127 0.013 0.24-0.011 0.239 0.11 0.144 0.043 0.134 0.128 0.169 0.259 0.072 0.036 0.259 0.073 0.472 0.092 0.12-0.056 0.15 0.22 0.201 0.224 0.183 1e-3 0.075 0.245 0.241 0.243 0.16 0.016 0.175-0.049 0.32-0.016 0.143 0.022 0.251 0.258 0.321 0.322 0.082 0.207 0.07 0.159 0.19 0.199 0.042 0.076 0.17 0.176 0.327 0.257 0.158 0.011 0.185 0.034 0.269 0.203 0.068 0.056 0.185 0.209 0.399 0.247 0.095 0.063 0.042 0.222 0.189 0.289 0.114-0.063 0.413 0.091 0.433 0.185 0.143-0.024 0.226 6e-3 0.266 0.158 0.099 0.111 0.132 0.208 0.293 0.261 0.035 0.075 0.051 0.197 0.206 0.314 0.068 4e-3 0.087 0.209 0.232 0.214 1e-3 0.153 0.201 0.2 0.251 0.371 0.168 0.036 0.221 0.09 0.333 0.126 0.035 0.2-0.063 0.307 0.132 0.342 0.129-6e-3 0.125 0.157 0.232 0.289 0.129 0.037 0.188 0.124 0.328 0.176-0.012 0.133 0.18 0.052 0.198 0.12 0.131 0.033 0.116 0.288 0.278 0.335 0.074 0.076 0.114 0.046 0.134 0.148 0.058 0.157 0.121 0.226 0.169 0.236 0.016 0.119 0.056 0.274 0.158 0.338-0.042 0.091-0.015 0.192 0.119 0.281 0.05 0.086 0.118 0.08 0.179 0.225 0.075 0.031 0.118 0.057 0.167 0.045 0.058 0.12 0.104 0.058 0.075 0.219-0.05 0.07 0.219 0.176 0.213 0.239-0.018 0.087 2e-3 0.064 0.066 0.183 0.08 0.047-0.109 0.155 0.015 0.164-0.097 0.097 0.221-0.061 0.215 0.106 0.04 0.06-0.051 0.192-0.122 0.231m-0.106 0.911c-0.043-0.053 0.369 0.081 0.291 0.079-0.162-0.026-0.451 0.03-0.243 0.026 0.206 0.032-0.305 0.2-0.495 0.153-0.142 0.122-0.173-0.077-0.201-0.051 0.191 0.121-0.256 0.218-0.131 0.262-0.019 0.119 7e-3 -0.012-0.352 0.046 0.123-0.015-0.971 0.016-1.151 0.046-0.373-4e-3 -0.099 0.036-0.495 0.187-0.33 0.064-0.063 0.2-0.349 0.182-0.045-0.045-0.26-0.027-0.632 0.074-0.573-0.013-1.198 0.166-1.394 0.162-0.234 0.02-0.244 0.127-0.459 0.123 0.024 0.078-1.094 0.171-1.264 0.263-0.497 0.045-0.854-0.018-0.923-0.052-0.664-0.029-0.485 0.116-0.999 0.147-0.464 0.101-1.016 0.088-1.234 0.215-0.176 0.062-0.55-0.076-1.277-0.048-0.498 0.054-1.189 0.16-1.436 0.266-0.402-0.028-0.897-0.042-1.565-8e-3 -0.598-0.031-0.909 0.064-1.121 0.101-0.701 0.099-1.042 0.05-1.477 0.148-0.473 0.057-0.762 0.099-1.424 0.117-0.704 0.085-1.166 0.096-1.419 0.087-0.41-0.079-0.975-0.093-1.705 0.025-0.871 0.059-1.393 0.288-1.605 0.21-0.332 0.024-1.441 0.074-1.938 0.046-0.253 0.041-1.174-0.017-1.762 0.075-0.345 0.12-0.322-0.189-1.125-0.119-0.738-0.032-1.235 0.057-1.9261-0.044-0.5578 0.121-1.7542-0.033-2.0374 0.04-0.8232-0.01-1.3566 0.126-1.8259 0.197-0.677-0.109-0.447-0.132-1.2531-0.076-0.3766 0.09-1.729 0.032-2.075-0.075-0.3662 0.076-0.4593 0.149-1.2694 0.148-0.4932 0.073-1.22-0.268-1.9259-0.238-0.609 0.069-1.0677 0.028-1.6102 0-0.4985-0.01-1.2 0.176-1.8489 0.1-0.3797 0.042-1.3521-0.07-1.6595 0.035-0.2108 0.088-0.6329-0.051-1.0959-0.166-0.2451 0.1-1.4601 0.033-1.8283 0.081-0.4639-0.1-0.4122 0.066-1.0275-0.033-0.4797-0.074-0.9772-0.165-1.528-0.193-0.5771-0.101-1.2738-0.013-1.8536-0.028-0.5718 2e-3 -0.5508 0.037-0.9979 0.097-0.4464-8e-3 -1.2819-0.041-1.382-0.128-0.3056 0.061-0.4181-0.014-0.9582-0.051-0.265-2e-3 -0.5432 0.021-1.1458-0.041-0.3305-0.033-1.6753-0.054-1.7199-0.058-0.6761 0.012-0.5011 0.088-0.6062 0.03 0.0063 0.016-1.2807-0.155-1.3811-0.23-0.0557-0.117-0.4258 0.062-0.4801 0.076-0.3605 1e-3 -0.877 0.116-0.8715-0.021-0.2683 0.019-0.3816 0.105-0.4959-0.034-0.2815 0.064-0.4711-0.32-0.8078-0.225 0.0676-0.146-0.7707-0.036-0.6524-0.131-0.1733-0.119-0.6081-0.023-0.8725-0.028-0.2813 0.038 0.2103 0.029-0.2463 0.042-0.4424 0.098-0.5558 0.106-0.4995-0.012-0.2491 0.013-0.0742-0.138-0.2816-0.088-0.2143-0.058 0.0258-0.062-0.2312-0.18 0.2512-0.14-0.1154 0.011-0.1166-0.124 0.1098 0.044-0.0761-0.123 0.1832-0.131-0.1822 0.019-0.2263 0.021 0.1275-0.022 0.019-0.063 0.0152-0.15 0.0097-0.136 0.2238 8e-3 0.4292 0.252 0.5438 0.106-0.0303 0.013-0.1524-0.048-0.3335-0.181 0.3235 0.056 0.5461 0.074 0.6527 0.029-0.1011 0.03 0.4385-0.131 0.5053-0.164 0.0321-0.036 0.0567-6e-3 0.5712-0.045 0.0613 0.062 0.2301-0.074 0.3916-0.207 0.1326-0.126 0.5684 0.135 0.6017 0.012 0.2289 0.034 0.5185 0.182 0.6781 0.038 0.5523-0.053 0.3697-0.308 0.7107-0.262 0.4312-0.05 0.466 0.199 1.0846 0.083 0.1845 0.015 0.8643-0.191 0.9755-0.193 0.2072 0.081 0.8499 0.015 0.9985-0.112 0.6866 0.032 0.7881-0.032 1.0609 0.015 0.4554 0.06 0.6842-0.093 1.0755-0.113 0.329-0.073 0.6039-0.06 0.9558-0.137 0.4478-0.019 1.0662 7e-3 1.6702 0.024 0.2728 0.014 1.0929-0.143 1.3017-0.059 0.5023-0.07 0.8463-0.159 1.1766-0.065 0.6418-0.058 0.8394 0.015 1.3264 0.095 0.3626-0.018 0.9206-0.104 1.7317-0.222 0.2682-0.119 1.1653 0.077 1.3568 0.049 0.6518-0.113 0.9686 0.145 1.5553 0.04 0.6124-0.088 0.4814-0.148 1.0879-0.213 0.5715-0.071 1.6333 0.046 2.0666 0.052 0.882 0.111 0.7062 0.081 1.2448 0.037 0.3689 0.033 1.1111 0.031 1.8975-3e-3 0.5969-0.09 0.7575-0.089 1.5426-9e-3 0.4026 1e-3 1.2553 0.048 2.1217-0.056 0.5193-0.01 0.788 0.148 1.503 0.108 0.2267-0.12 1.4299-0.196 1.7852-0.142 0.4157-0.116 0.7906-0.151 1.3877-0.067 0.6724 0.012 1.0798 0.059 1.7942-0.013 0.3437 0.031 0.7635 0.109 1.6505 0.087 0.243-0.044 0.925 0.092 1.436-4e-3 0.467 0.111 1.271 7e-3 1.957 0.085 0.682-0.1 1.027-0.103 1.521-0.162 0.723 0.109 0.711 0.255 1.484 0.134 0.423-0.101 0.904 0.012 1.667 0.022 0.553-0.071 1.015-0.056 1.655-0.126 0.358 0.099 0.773-0.098 1.04-0.066 0.546-0.075 1.235 0.086 1.929-0.02 0.483-0.015 0.526-0.066 0.905-0.021 0.675 0.047 1.097 0.037 1.292 3e-3 0.414 0.059 1.022 0.12 1.56 0.074 0.135 0.09 0.534 0.128 1.261 0.071 0.43 0.01 0.641-0.049 1.288-0.012 0.352-0.043 0.545-0.069 0.675-0.12 0.562 7e-3 0.528-0.068 0.922 0.041 0.045 0.083 1.276-0.114 1.447-0.076 0.204 0.061 0.202 0.03 0.781 0.032 0.417-0.051 0.104 0.18 0.553 0.069-0.031 0.14 0.56-0.237 1.049-0.146 0.319-7e-3 0.41 0.145 0.291 0.231" fill="#f95b5b" style="paint-order:markers fill stroke"/>
 </g>
</svg>
