<svg width="1920mm" height="1080mm" version="1.1" viewBox="0 0 1920 1080" xmlns="http://www.w3.org/2000/svg" xmlns:osb="http://www.openswatchbook.org/uri/2009/osb" xmlns:xlink="http://www.w3.org/1999/xlink">
 <defs>
  <linearGradient id="linearGradient841" x1="950.39" x2="1284.6" y1="545.62" y2="545.62" gradientUnits="userSpaceOnUse">
   <stop stop-color="#f95b5b" offset="0"/>
  </linearGradient>
 </defs>
 <g>
  <g transform="matrix(.71996 -.16145 .29657 1.3225 0 0)" stroke="url(#linearGradient841)" stroke-width="5.2504" aria-label="joy">
   <path d="m1182.1 554.92c-1.2601 0.42003-1.8901 0.63005-1.8901 1.8901h1.8901c-0.63 1.8901-1.8901 3.3602-4.2003 3.3602 0.8401-1.2601 1.0501-2.3102 2.1002-3.3602-0.42 0.21001-1.2601 0-1.2601 0.21001-1.4701 1.2601-2.9402 2.3102-3.9903 3.7803h2.3102c0-0.42003 0.21-0.63004 0.84-0.63004 0 0.63004-0.42 1.0501-0.84 1.0501-1.2601 1.6801-2.5202 2.9402-4.2003 2.9402-0.6301 0.63005-0.8401 1.4701-1.4701 1.4701 0.63-0.84006 0.63-1.0501 0.84-1.4701v-0.63004c-0.21 0-1.05-0.42003-1.05 0-1.8902 1.2601-4.2003 2.7302-5.0404 5.2504h2.3102c0 1.2601-1.4701 1.4701-2.5202 2.1002-0.42 0.84006-1.0501 1.4701-1.6801 1.6801 0-0.42003 0-1.0501-0.8401-1.6801-0.63-0.21001-1.0501 0.63005-1.6801 1.2601-4.2003 3.9903-8.1906 8.8206-11.971 13.441-1.8901 3.1502-4.4103 5.6704-5.2503 9.2407-2.5202 2.7302-2.3102 6.3004-1.0501 9.6607l2.1001 6.3004c2.1002 3.9903 5.0404 6.5105 9.4507 7.1405 3.7803 0.84006 6.7205-0.42003 9.4507-2.5202 2.3101-1.8901 4.2003-4.4103 6.3004-6.0904 0.6301-0.63005 1.4701-1.2601 2.3102-2.3102l2.5202-3.5702c0.84-0.84006 1.8901-1.6801 2.5202-2.7302-0.6301-2.3102 2.1001-1.8901 2.5201-3.1502 0.21-0.63005 0.8401-1.2601 1.0501-2.1002 0.42-2.1002 1.2601-4.2003 2.7302-5.0404 1.0501-0.63005 1.6801-1.4701 2.1002-2.5202 1.05-1.8901 1.6801-3.1502 2.9402-4.4103 0.84 0 0.84-1.2601 1.4701-1.4701 0.21-1.6801 0.84-2.7302 1.05-3.7803 2.1002-0.63005 2.1002-3.1502 2.9403-4.6203 1.05-1.2601 1.05-2.9402 1.8901-3.9903 1.2601-2.1002 3.3602-3.9903 2.9402-6.7205 2.7302-2.5202 3.1502-6.0904 5.0404-8.6106 1.4701-1.0501 2.1001-1.8901 1.4701-3.9903v-0.84006c1.8901-2.7302 2.9402-5.8804 5.8804-7.9806 0-0.21001-0.42-0.21001-0.6301-0.21001 0.6301-0.63005 0.6301 0 0.6301 0.21001 1.0501-0.21001 1.0501-0.84006 1.0501-1.8901 0 0-0.4201-0.42003-0.6301-0.42003 0.6301-0.21002 0.6301 0 0.6301 0.42003 1.05 0 1.8901 0.21001 2.3101-1.4701 0.6301 0 1.8902 0.84006 2.3102-0.63004l-1.2601-1.0501h-2.1002c0.4201-1.0501 1.4702-1.0501 2.1002-1.0501v1.0501h1.2601v0.63005c0.63 0.42003 0.84 0.42003 1.0501 0 0.42 0 0.42-0.21002 0.42-0.21002s0-0.42003-0.42-0.42003h-1.0501c0-0.84006-0.42-1.0501-1.2601-1.0501 0.42-1.2601 1.2601-1.2601 2.3102-1.2601 0.42 1.2601 1.2601 1.2601 1.8901 1.2601v-1.2601h-1.8901c0.42-1.0501 1.2601-1.0501 1.8901-1.0501v-1.0501c-1.8901 0-3.7803 1.0501-5.2504 1.6801-0.63 0-1.0501 0.42003-1.2601 0-1.05 0-0.84-0.63005-0.84-1.0501 1.6801-3.3602 2.7302-6.5105 4.4103-9.8707 2.5202-6.3004 5.0403-13.021 8.4006-19.321 1.2601-2.5202 2.5202-5.0404 5.0403-6.5105 1.4702-0.42003 1.4702-1.8901 0-3.3602-0.63-1.0501-2.5201-1.0501-3.7802-1.8901-0.6301-0.84006-0.6301-1.2601-2.3102-1.0501-1.6801 0.63005-4.4103 0.21002-5.0403 2.9402-0.6301 0.63005-1.4702 0.63005-2.3102 1.2601l-10.921 6.3004c-6.5105 4.2003-12.811 8.6106-19.321 12.391-3.5702 2.3102-7.3505 4.8303-10.501 7.1405-1.4701 0.84006-3.3603 1.0501-4.8304 1.4701-0.21 0-0.84-0.42003-0.84-0.42003 0.84-1.6801 1.4701-3.7803 2.1001-5.4604 2.3102-4.2003 3.9903-8.1906 7.1405-11.971 0.21-0.84006 0.8401-1.4701 1.0501-2.1002 0.6301-1.2601 0.6301-2.9402 0.42-4.4103-0.63-2.3102-3.3602-2.7302-4.6203-2.1002-1.0501 1.2601-2.7302 2.5202-3.9903 3.5703-5.0403 6.0904-9.0306 12.811-10.921 20.791-0.84 2.7302-0.21 5.8804 0.6301 8.6106 1.6801 3.3602 5.4604 5.0404 8.8206 3.9903 5.0404-1.4701 9.6607-3.7803 14.071-6.7205 7.5606-5.6704 16.381-10.081 24.152-15.751 0.4201 0 1.2601-0.42003 1.4702-0.42003 0 0 0.84 0.42003 0.84 0.63004 0 0.63005-0.42 1.2601-0.42 1.6801-3.7803 9.4507-7.3505 18.271-10.921 27.722-0.42 1.6801-1.4701 3.5703-3.3602 4.2003-1.0501 0.21002-2.3102 0.84006-2.5202 1.6801 0.63 0 1.0501 0.84006 1.6801 0.84006-0.21 0.21002-0.21 0.84006-0.63 1.0501l-1.0501 1.4701c-1.2601 0.42003-1.8902 0-2.5202 1.2601-1.0501 1.2601-2.9402 2.1002-4.4103 2.5202-0.6301 0.42003-1.6801 0.42003-1.8901 0.63005h-0.2101 0.2101c-0.6301 2.1002-2.5202 2.5202-4.4104 3.3602zm10.711 3.7803c-0.8401 2.9402-2.5202 5.0404-3.9903 7.7706-2.1001 3.7803-3.7803 7.1405-5.4604 10.501v1.2601c-1.6801 0.63004-2.5202 1.6801-2.5202 3.5702-1.26 0.21002-1.8901 1.6801-2.7301 2.9402-4.6204 8.4006-11.131 15.331-18.691 21.422-2.1001 1.6801-5.2504 2.7302-8.1906 2.5202-0.63 0-1.4701-0.84006-2.1001-1.0501-0.21-0.63005-1.0501-1.4701-1.0501-1.6801 1.0501-3.1502-0.21-6.9305 3.1502-9.2407 0.8401-0.42003 1.2601-1.2601 1.6802-2.5202 1.8901-2.9402 3.7802-6.3004 6.5104-8.6106 0.8401-0.84006 1.6801-1.8901 2.3102-2.9402 1.4701-3.3602 4.4103-6.0904 7.1405-8.6106 3.9903-3.3602 8.1906-6.7205 11.341-10.501 1.2601-1.8901 3.1502-3.1502 4.8303-4.2003l4.4104-3.3602c1.6801-1.4701 3.3602-1.6801 4.8303-3.3602 1.0501-0.21002 1.6801 0.21001 1.6801 0.84006-1.6801 1.8901-2.3101 3.3602-3.1502 5.2504zm-11.971 28.352c-0.21 0-0.63 0.42003-0.63 0.84006-1.2601 0.21001-0.63 0.84006-0.21 1.0501-1.0501 1.4701-1.8901 2.5202-2.5202 4.2003l-0.42 2.3102c-2.3102-0.63005-2.3102-0.63005-2.9402 1.2601-0.4201 0.63004 0.42 1.4701 0.42 2.1002h1.2601v0.42003c0 0.84006-0.21 1.0501-0.21 1.4701-0.8401-0.42003-0.8401-0.63004-1.0501-1.4701v-0.42003c-0.8401 0-1.4701 1.4701-2.5202 0.21001-0.63 1.0501-1.2601 1.2601-1.6801 2.1002l-1.6801 1.4701c0.21 0.21001 0.63 0.21001 1.0501 0.63004 0.42 0.21002 0.42 1.0501-0.4201 1.0501-1.8901 0-3.1502 0.84006-3.9903 2.3102-2.1001 2.3102-4.2003 3.5703-6.5104 5.0404h-1.2601c0.63-1.4701 1.4701-2.1002 2.7302-2.9402 2.9402-2.1002 5.0403-5.2504 7.5605-7.5605 5.2504-5.4604 9.2407-11.341 12.811-17.641 0.21-0.63004 0.21-1.2601 0.8401-1.6801 0.8401-0.63004 1.8901-1.8901 1.8901-3.3602l2.1002-0.84006c0.42 0.63005 1.0501 1.2601-0.4201 1.8901-0.21 0.42003-0.21 1.4701-0.21 1.6801 0.6301 1.4701-0.42 1.6801-1.4701 2.5202v1.8901c-0.42 0.42003-1.05 0.42003-1.2601 0.42003-0.42 0.42003-0.63 0.84006-1.2601 1.0501zm78.546-64.685h0.42v-0.21002c2.3102 0.21002 4.6203 0.21002 6.0904-1.4701 0.8401 0 2.3102 0 3.5703-0.42003 2.7302-1.0501 5.2504-1.4701 8.4006-1.0501 1.8901 0 4.2003 0 6.7205-0.84006-3.1503-0.42003-5.0404-1.0501-7.5606-1.0501-6.0904-0.21002-11.761 0-17.641 1.0501-0.6301 0.42003-1.8902 0.42003-2.9403 0.84006-6.3004 1.4701-12.391 2.9402-18.271 5.6704-0.42 0-0.42 0.21001-0.84 0.84006 1.0501 0 2.5202 0.21001 3.7803-0.63005 4.2003-1.6801 8.6106-2.9402 13.021-3.5702 1.2601-0.63005 2.3101-1.2601 4.2003-1.2601 0.63 0.42003 1.0501 0.42003 1.4701 1.8901h-0.42zm-27.722 6.5105c1.6801-1.0501 3.3602-2.3102 5.0403-2.3102v-0.84006c-2.7302 0-5.4604 1.4701-7.9805 2.9402v0.21001zm-10.711 3.1502c2.9402 0 5.4604-1.0501 7.1405-3.1502-2.9402-0.21001-5.0403 1.4701-7.1405 3.1502zm0 4.2003c0 0.21001 0 0.63004 0.42 0.84006 0-0.21002 0.6301-0.63005 0.6301-0.84006v-0.84006h0.21c1.0501 0 2.3102 0 2.9402-0.63005 0.6301-0.63004 0.6301-1.0501 0.6301-1.2601h-0.6301c-1.4701 1.2601-2.9402-0.42003-4.2003-0.42003v1.0501c0 0.63004 0.42 0.84006 1.0501 1.2601h-1.0501c0 0.21001-0.21 0.84006 0 0.84006zm35.492-13.861-0.21 0.42003c0 0.63004 0.21 0.63004 0.21 0.63004 1.0501 0 2.5202 0.84006 2.9403-1.0501zm-64.475 26.042c-1.6801 0-2.7302 0.42003-3.1502 1.8901 1.4701 0.63005 2.3102-0.84006 3.1502-1.8901zm37.803-16.381c1.8902 0 1.8902 0 1.8902-1.8901-1.8902 0-1.8902 0.21002-1.8902 1.8901zm-43.263 21.212c0.21-0.42003 0.21-0.84006 1.05-1.6801-1.6801-0.42003-2.5202 0.84006-3.1502 1.6801zm8.4006-6.7205c-1.4702 0-2.3102 0.21002-2.9403 1.6801 1.4701 0.21002 2.3102-0.84006 2.9403-1.6801zm-28.982 22.262c-1.0501 0-1.6801 0.84006-1.6801 1.8901h1.6801zm19.531 8.1906c0-0.84006 0-1.4701 1.0501-1.8901v0.42003c1.05 1.4701 1.05 1.4701-1.0501 1.4701zm6.5104-9.4507h-1.05c0-0.42003 0-1.6801 1.05-1.8901 0.2101 2.3102 0.6301 2.3102 0.6301 2.3102-0.6301 0.84006-0.6301 0-0.6301-0.42003zm-7.5605-14.071c-1.0501-0.21002-1.4701 0-2.3102 1.0501 1.2601 0.42003 1.8902 0.42003 2.3102-1.0501zm54.814-25.622c-0.42-1.2601-1.0501-1.2601-1.8901-1.2601v1.2601zm-76.656 46.203c0 1.0501-0.84 1.8901-1.6801 1.8901 0.21-1.4701 0.21-1.4701 1.6801-1.8901zm20.792 13.861v-1.8901h1.0501c0 0.84006 0.42 1.4701-1.0501 1.8901zm4.2003-15.331c0 1.4701 0.21 2.3102-1.05 2.5202 0-0.63004 0-1.6801 1.05-2.5202zm2.3102-2.9402c0-0.84006-0.42-1.6801 1.0501-2.1002 0 0.63005 0 2.1002-1.0501 2.1002zm24.572-32.132h-1.05c-0.21 0-0.6301-0.42003-0.8401-0.63005 0.21 0 0.6301-0.42003 0.8401-0.42003h1.05zm13.021-5.4604c0 0.21001 0.42 0.63004 0.42 0.63004 0.8401 0.42003 1.4701 0 1.6801-0.63004-0.63 0-0.84-0.21002-1.4701-0.21002-0.21 0-0.63 0.21002-0.63 0.21002zm4.2003-3.1502v0.63005h2.3101c-0.42-0.63005-1.6801-0.63005-2.3101-0.63005zm-61.324 37.593c0-0.63005 0.42-0.84006 1.0501-0.84006 0 0.63004-0.21 0.84006-1.0501 0.84006zm59.434-34.232v-0.21001h-0.21c0 0.21001 0 0.21001 0.21 0.21001zm-64.957-18.901c0-0.21001-1.2601-3.7803-1.8902-3.1502-1.6801 0.21001-3.3602 0-5.2504 0.84006-1.05 1.2601-2.7301 1.8901-4.4103 2.5202-3.5702 0.84006-6.5104 1.2601-9.4506 2.3102-5.2504 1.0501-10.291 2.1002-15.331 2.9402-3.3603 0.84006-6.9305 0.84006-10.291 0 1.2601-2.5202 1.8902-5.0404 2.7302-7.3505 1.4701-5.6704 1.2601-11.551-3.3602-16.381-1.0501-1.2601-2.1002-2.5202-2.9402-4.2003-0.6301-0.63005 0.21-0.63005 0.63-0.63005 1.0501-0.63004 1.0501-2.3102 0-2.5202-2.5202-0.84006-4.8303-2.5202-7.7705-1.4701-1.4701 0.63004-2.9402 0.63004-4.6204 0.63004-2.1001-0.42003-3.9903-0.42003-5.8804 0-1.4701 0-2.9402 0-3.9903 0.84006-2.7302 1.0501-5.6704 2.1002-8.4006 3.5703-1.6801 1.2601-3.1502 2.7302-4.6203 4.4103-1.2601 1.6801-1.6801 3.3602-1.4701 5.8804 0 1.8901-0.6301 4.2003-2.7302 5.8804-2.5202 2.7302-4.4103 5.6704-6.7205 8.4006-5.0403 5.8804-8.4006 12.601-10.081 20.371-1.0501 1.8901-1.0501 3.9903-1.2601 5.6704 0 6.5105 4.6203 13.231 13.231 13.861 4.8303 0 9.2406-1.2601 13.651-3.5702 6.3005-3.3602 11.341-8.1906 17.431-11.971 0.42-0.42003 0.42-0.63004 0.84-1.2601l7.3506-7.7706c3.7802-5.4604 3.5702-4.6203 9.8707-4.6203 3.9902 0 7.7705 0 11.341-0.42003 2.7302-0.42003 5.4604-0.63005 7.9805-0.63005 1.0501 0 2.1002-0.42003 2.5202-1.4701 0.21 0 9.8707-2.7302 10.081-2.3102zm-63.215 13.231c-2.3101 1.8901-3.5702 3.3602-5.2503 5.0404-6.0905 5.4604-12.811 10.291-20.582 14.071-2.3102 0.84006-4.4103 1.6801-5.8804 1.2601h-3.3603c-1.2601-0.42003-2.5201-1.4701-1.8901-2.7302 1.6801-3.1502 2.7302-7.3505 4.4103-10.711 2.3102-3.9903 4.2003-7.7706 6.0905-11.761 1.05-3.5702 3.1502-5.8804 4.8303-8.8206 0.21-0.84006 1.0501-0.84006 2.1001 0.21002 4.8304 5.6704 10.291 9.6607 17.851 11.131 0.21 0.63005 0.8401 0.63005 1.0501 0.84006 0.63 0 0.8401 1.0501 0.63 1.4701zm12.181-22.262c-0.21 4.2003-1.8901 7.9806-4.2003 11.971-0.63 1.2601-2.1001 1.8901-4.2003 1.6801-3.5702-0.63004-7.3505-1.0501-11.131-2.7302-2.3101-0.84006-5.4604-1.6801-7.1405-3.7803-0.21-0.63005-1.0501-1.2601-1.4701-1.8901-1.0501-0.84006-1.0501-1.6801 0-2.5202l4.6203-4.2003c2.7302-2.1002 5.2504-4.4103 8.1906-6.0904 2.5202-2.1002 5.0404-3.5703 8.1906-5.2504 0.21-0.21001 0.8401 0 1.2601 0 0.8401 0.63005 1.4701 1.0501 1.6801 1.4701 3.1502 2.7302 5.0404 6.7205 4.2003 11.341zm-109.63 31.712c-0.63 0.42003-1.0501 0.42003-1.0501 1.2601h1.0501c-0.21 0.63005-0.63 0.63005-1.0501 0-1.05 0.42003-1.8901-0.21001-1.8901 0.84006 0.6301 0.63005 0.6301 0.84006-0.63 1.2601v-1.2601c-0.4201 0-1.0501 0.63005-1.8902 1.2601h1.8902c-0.2101 1.2601-0.8401 1.2601-1.8902 1.2601-0.21002 0-0.21002 0.42003-0.21002 0.42003-0.42003 0-0.42003-0.21001-0.63004-0.42003h0.63004v-1.0501l-0.84006 1.0501c-1.4701 0-2.3102 0.42003-2.9402 1.6801 0 0.63005 0.63005 0.63005 0.63005 0.63005 0 0.21001-0.63005 0.63004-1.0501 0.63004v-0.63004c-0.63004 0-1.6801-0.63005-1.6801 0.63004h1.6801c-0.21001 1.0501-0.84006 1.2601-1.6801 1.2601h-0.42003v-1.2601c-0.42003 0.21002-0.63004 0.21002-0.63004 1.2601h0.63004c-0.42003 0.21002-0.42003 0.63005-0.63004 1.0501 0-0.42003 0-0.84006-0.63005-1.0501-1.4701 0-2.5202 0.63005-2.7302 2.1002 0.21001 0.42003 0.21001 0.42003 0.63004 0.63005-0.42003 0-0.42003 0-0.63004 0.63004v-1.2601c-2.3102 0.42003-3.3602 1.4701-4.2003 3.3602l0.21001 0.42003c0 0.21002-0.21001 0.21002-0.84006 0.63005-0.21001 0.63004-0.63004 1.0501-0.84006 1.0501h-0.21001c0-0.42003 0-0.42003 0.42003-1.0501-2.1002 0-3.3602 1.2601-3.9903 2.9402h1.8901v1.4701h-2.5202v-1.4701c-0.21002 0-0.63005 0.63004-0.63005 1.4701h0.63005c0 0.63005-0.21002 1.0501-0.84006 1.0501v-1.0501l-0.84006 1.0501h0.84006c-0.42003 0.21001-0.84006 0.21001-0.84006 0.63004-0.21002-0.42003-0.21002-0.42003-0.21002-0.63004-1.0501 0.21001-1.6801 0.21001-2.5202 1.0501-5.0404 4.4103-10.291 9.8707-14.701 15.331-2.3102 2.7302-4.2003 6.0904-6.3004 9.0306-1.8901 2.9402-2.5202 5.8804-2.3102 9.8707 0.42003 2.9402 1.0501 6.3004 2.3102 9.2407 1.0501 2.3102 2.1002 3.7803 3.9903 5.4604 2.1002 0.84006 4.4103 1.8901 6.5105 1.6801 1.8901 0 4.2003-0.84006 5.6704-1.4701 3.9903-2.3102 7.3505-4.4103 10.081-6.9305 2.3102-1.2601 5.0404-2.9402 6.5105-5.0404 2.3102-3.3602 5.4604-5.6704 8.6106-8.6106 0.21001-0.42003 1.2601-1.2601 1.8901-1.8901 2.7302-4.2003 6.7205-7.5605 8.6106-12.391 0.2101-0.42003 0.8401-0.63004 1.0501-1.4701 2.3102-0.42003 3.1502-2.5202 4.2003-4.6203h-0.42l-0.42-0.42003h0.42v0.42003c2.7302-2.3102 3.9903-6.3004 6.7205-9.0306 1.2601-0.84006 2.5202-2.9402 2.7302-4.4103 0.63-1.8901 1.2601-3.5703 2.1001-5.0404 1.6801-1.0501 1.2601-3.1502 2.5202-4.4103 1.6801-2.5202 3.3602-5.4604 4.4103-8.6106 0-0.84006 0.6301-1.4701 1.4701-1.6801 2.9402-1.6801 6.0905-3.1502 9.0307-3.7803 4.4103-1.4701 8.6106-3.3602 13.021-3.7803 0.42 0 0.63-0.42003 1.2601-0.42003 2.1001-1.8901 4.8303-1.8901 7.3505-2.5202 2.3102-0.63005 4.8304-0.63005 6.7205-1.4701 3.1502-1.0501 6.7205-1.0501 9.6607-1.0501h5.4604c1.05 0 2.3101 0 3.7802-0.21002-0.84-0.84006-1.4701-1.8901-1.6801-2.7302-0.84-2.5202-2.5202-3.1502-4.4103-4.6203-1.0501-1.0501-2.5202-1.0501-4.2003-0.42003-4.6203 2.1002-10.501 1.0501-15.961 2.9402-3.7803 0-7.5606 1.4701-11.551 2.1002-2.3101 0.84006-4.6203 1.8901-7.3505 2.7302-2.9402 0.21002-5.0403 2.1002-7.7705 3.3602-0.6301 0.21002-1.4701 0-1.4701-0.63004v-16.171c0-1.6801-0.4201-2.7302-1.8902-3.1502-0.63-0.42003-1.2601-0.63005-1.4701-1.4701-1.4701-0.84006-3.1502-0.84006-4.8303-0.84006-0.4201 0-1.2601 0.21002-1.2601 0.84006-0.6301 1.4701-1.0501 2.9402 0 4.4103 1.8901 1.6801 1.8901 3.7803 1.6801 6.0904-0.8401 2.7302-0.8401 4.8304-1.2601 7.5605-0.42 3.3602-0.42 6.7205-3.5702 8.6106-1.0501 0.21001-1.0501 1.0501-1.8902 1.4701h0.6301l-0.8401 0.63005c0-0.21002-0.42-0.21002-0.42-0.63005-1.0501 0-1.8902 0-2.3102 1.0501 0.42 0.42003 0.42 0.42003 1.0501 0.42003-0.6301 0.42003-0.6301 0.42003-1.0501 0.42003v-0.84006c-1.6801 0.84006-3.7803 1.2601-5.4604 2.3102-1.0501 0.63005-2.7302 1.2601-1.0501 2.5202-1.05 0-1.26 0.42003-1.8901 0.42003h-0.21c0.21 0 0.21 0.21002 0.21 0.42003-0.21 0.84006-0.8401 0.84006-1.2601 0.84006zm10.081 7.7706c-1.8901 5.8804-4.8303 10.501-8.1905 15.541-2.9403 5.4604-6.5105 10.501-10.501 15.541-0.21001 0.84006-1.2601 1.4701-1.4701 2.1002-3.1502 3.3602-5.8804 6.7205-9.0306 9.8707l-10.291 8.1906c-1.8901 2.1002-4.6203 3.3602-7.3505 4.8303-1.8901 0.84006-3.3602 1.0501-5.2504 1.0501-1.4701-0.21002-3.1502 0-4.6203-1.0501-1.4701-1.0501-2.1002-2.7302-1.4701-4.2003 0.21002-0.63004 0.63005-1.4701 1.2601-1.8901 1.0501-2.5202 3.3602-4.4103 4.2003-7.3505 0-1.0501 0.63005-1.2601 1.0501-1.8901 0.63004-1.0501 1.6801-1.6801 2.5202-3.5703 2.9402-4.4103 6.7205-8.4006 11.131-12.181 2.5202-2.5202 5.0404-5.0404 7.9806-7.5605 2.5202-2.5202 5.6704-4.4103 8.6106-7.1405 2.7302-2.1002 5.2504-4.4103 8.4006-6.5105 2.3102-0.63005 3.5703-1.6801 5.0404-3.1502 1.2601-1.2601 2.5201-2.1002 3.7802-2.3102 0.6301-0.42003 1.4701-0.63005 2.1002-0.63005 1.2601-0.42003 1.6801-2.5202 3.7803-1.0501 0.21 1.2601-1.0501 2.5202-1.6802 3.3602zm9.2407-63.635c2.9402 1.0501 5.8804 1.4701 9.2407 1.0501h3.9902c1.6802 0.42003 2.3102-1.0501 1.6802-2.7302-0.8401-1.8901-2.7302-3.1502-4.4104-4.4103-1.6801-1.0501-3.3602-1.4701-5.2503-0.42003-1.6801 1.6801-3.9903 2.9402-5.6704 3.7803-0.4201 0.42003-0.4201 0.84006-0.4201 1.8901 0 0.21002 0.4201 0.42003 0.8401 0.84006zm44.523 38.643c-3.1502 1.4701-6.5105 1.4701-9.8707 2.1002-0.21 0-0.6301-0.42003-0.6301-0.42003 0-0.21001 0.4201-0.21001 0.4201-0.21001 1.6801-0.42003 3.5702-1.4701 5.4603-1.4701 1.4702 0 2.7302-0.42003 4.2003-0.63004h0.4201s0 0.21001 0.42 0.21001zm-16.591 4.2003c-1.0501 0.21002-2.1002 0.21002-2.9402 0.21002 0.21-1.6801 1.8901-0.84006 2.9402-0.84006l0.42 0.21001zm-15.961 4.4103c0.63-1.4701 1.6801-1.0501 2.9402-0.63005-0.2101 0.84006-1.8902 0.63005-2.9402 0.63005zm-24.782 6.9305c0.21-0.63004 0.21-0.63004 0.84-0.84006l0.8401 1.0501c-0.21 0-0.63 0.42003-0.63 0.42003h-1.0501zm5.8804-5.0404c-0.21 0-0.42 0-0.42 0.42003h0.63c0-0.21001-0.21-0.42003-0.21-0.42003z" fill="#f95b5b" stroke-width="0"/>
  </g>
 </g>
</svg>
