<svg width="150.86" height="40.362" version="1.1" viewBox="0 0 39.915 10.679" xmlns="http://www.w3.org/2000/svg" xmlns:osb="http://www.openswatchbook.org/uri/2009/osb" xmlns:xlink="http://www.w3.org/1999/xlink">
 <g>
  <g transform="scale(.99926 1.0007)" stroke-width="0" aria-label="shoes">
   <path d="m32 6.6851h-0.11307c0.03392-0.056535 0.05653-0.056535 0.11307-0.056535h0.01131c0.01131-0.045228 0.05653-0.079148 0.09045-0.045228 0.05654 0.045228 0.10176 0.045228 0.20352 0.011307 0.04523-0.011307 0.11307-0.011307 0.18091-0.045228l0.09045-0.045228c0.02261-0.056535-0.01131-0.079148-0.05654-0.11307-0.12438-0.090455-0.10176-0.090455-0.23744-0.079148-0.18091 0.045228-0.39574 0.11307-0.57665 0.19222-0.01131 0.011307-0.02261 0.033921-0.02261 0.045228 0.01131 0.033921 0.02261 0.045228 0 0.079148-0.04523 0.056535-0.09046 0.056535-0.13568 0.056535 0.01131-0.056535 0.05653-0.045228 0.11307-0.056535v-0.079148h-0.11307c-0.31659 0.1696-0.6558 0.31659-0.9837 0.45228-0.03392 0.011307-0.04523 0.056534-0.06784 0.090455 0.06784 0 0.10176-0.022614 0.1696-0.033921 0.01131-0.045228 0.05653 0 0.09046 0-0.01131 0.011307-0.03392 0.033921-0.04523 0.033921-0.07915 0.045228-0.14699 0.10176-0.26006 0.090455 0-0.022614 0.03392-0.045228 0.04523-0.090455-0.04523 0-0.06784 0.011307-0.10176 0.045228-0.33921 0.1583-0.66711 0.3279-0.96109 0.52012-0.11307 0.056534-0.14699 0.056534-0.19222-0.056534-0.090455-0.21483-0.23744-0.41836-0.38443-0.64449-0.090455-0.1583-0.18091-0.31659-0.19222-0.4975-0.04523-0.10176 0-0.18091 0.07915-0.23744 0.06784-0.067841 0.13568-0.13568 0.21483-0.1696 0.09046-0.022614 0.1696-0.079148 0.28267-0.011307 0.09046 0.033921 0.13568 0.011307 0.1696-0.11307 0.02261-0.045228 0.02261-0.033921 0.05653 0 0.13568 0.12438 0.31659 0.14699 0.45228 0.067841 0.05654-0.045228 0.07915-0.11307 0.01131-0.18091-0.18091-0.18091-0.36182-0.3279-0.64449-0.33921-0.20352-0.033921-0.40705 0.033921-0.59927 0.045228-0.12438 0.033921-0.27136 0.13568-0.36182 0.22614-0.10176 0.10176-0.12438 0.22614-0.11307 0.33921 0.01131 0.14699 0.01131 0.30529 0.11307 0.45228 0.1583 0.23744 0.29398 0.53142 0.44097 0.76887 0.07915 0.1583 0.19222 0.28267 0.24875 0.42966 0.06784 0.067841 0.04523 0.10176-0.01131 0.1583-0.31659 0.18091-0.58796 0.38443-0.88194 0.55404-0.13568 0.090455-0.27136 0.1696-0.38443 0.26006-0.27137 0.1583-0.53142 0.33921-0.75756 0.55404-0.03392 0.056534-0.05653 0.067841-0.06784 0.10176-0.09045 0.1583-0.07915 0.30529-0.02261 0.46358 0.03392 0.14699 0.11307 0.23744 0.26006 0.28267 0.10176 0.06784 0.23744 0.10176 0.37313 0.1696 0.18091 0.07915 0.35051 0.14699 0.52012 0 0.07915-0.03392 0.1696-0.03392 0.28267-0.06784 0.09046-0.01131 0.20352-0.06784 0.27137-0.14699 0.14699-0.12438 0.30529-0.24875 0.45228-0.39574 0.22614-0.20352 0.33921-0.30529 0.42966-0.58796 0.06784-0.1696 0.12438-0.35051 0.06784-0.55404-0.02261-0.090455-0.02261-0.18091-0.03392-0.29398 0-0.10176 0.01131-0.1583 0.12438-0.20352 0.09046-0.056535 0.1583-0.14699 0.28267-0.14699 0.1583-0.10176 0.29398-0.18091 0.42966-0.29398 0.07915-0.022614 0.13568-0.079148 0.18091-0.10176 0.10176 0 0-0.11307 0.11307-0.11307 0.1696-0.10176 0.33921-0.18091 0.4975-0.27137 0.04523-0.011307 0.09045-0.011307 0.10176-0.011307 0.11307-0.090455 0.21483-0.14699 0.31659-0.18091 0.10176-0.045228 0.14699-0.079148 0.22614-0.13568v-0.033921h-0.06784c0.01131 0 0.02261-0.011307 0.02261-0.022614h-0.03392c0.04523-0.045228 0.13568-0.033921 0.18091-0.033921 0.04523 0.056534 0.06784 0.056534 0.11307 0zm-3.1207 2.6458c-0.05654 0.056534-0.11307 0.079148-0.1583 0.13568-0.13568 0.18091-0.31659 0.23744-0.54273 0.28267-0.05654 0-0.11307 0.033921-0.1583 0.033921-0.13568 0.033921-0.24875 0.033921-0.37313 0-0.09045-0.033921-0.20352-0.045228-0.27136-0.079148-0.03392 0-0.04523-0.011307-0.03392-0.033921 0-0.022614 0.03392-0.056535 0.04523-0.079148 0.14699-0.18091 0.3279-0.3279 0.55404-0.44097 0.27136-0.14699 0.50881-0.30529 0.74626-0.52012 0.1583-0.12438 0.3279-0.21483 0.52012-0.3279 0.10176 0.42966-0.05654 0.74626-0.3279 1.0289zm1.3907-1.9109v-0.045228h-0.11307c0.04523-0.12438 0.11307-0.12438 0.23744-0.10176v0.033921c-0.05653 0-0.10176 0-0.12438 0.067841 0.04523 0 0.12438 0 0.13568-0.067841h0.09045c-0.04523 0.11307-0.10176 0.1583-0.22614 0.11307zm-0.11307 0.067841v-0.067841l-0.05653 0.067841h-0.16961c0.045228-0.10176 0.12438-0.11307 0.22614-0.11307v0.045228h0.10176c0 0.067841-0.05653 0.067841-0.10176 0.067841zm1.0628-0.53142v-0.045228h-0.18091c0.04523-0.079148 0.10176-0.13568 0.20352-0.11307-0.01131 0.033921-0.02261 0.067841-0.02261 0.11307h0.09045c-0.02261 0.045228-0.06784 0.045228-0.09045 0.045228zm-1.5717 0.70103c0.05653-0.10176 0.13568-0.13568 0.27136-0.1696-0.06784 0.11307-0.1696 0.1696-0.27136 0.1696zm1.8996-0.93847h0.1583v0.022614c-0.02261 0.090455-0.10176 0.033921-0.1583 0.033921v-0.033921c-0.01131 0-0.03392 0-0.04523-0.022614-0.03392 0-0.03392 0-0.04523-0.022614 0.01131 0 0.01131-0.011307 0.04523-0.011307h0.04523zm-2.0805 1.0628c0.01131-0.079148 0.07915-0.12438 0.1696-0.11307-0.02261 0.067841-0.09045 0.11307-0.1696 0.11307zm1.4925-0.68972c0.02261-0.079148 0.07915-0.079148 0.12438-0.079148-0.02261 0.079148-0.04523 0.079148-0.12438 0.079148zm-2.0013 0.97239c0.03392-0.045228 0.05653-0.045228 0.10176-0.045228 0.02261 0 0.02261 0.011307 0.02261 0.011307-0.03392 0.033921-0.07915 0.045228-0.11307 0.067841l-0.01131-0.022614zm1.5377-0.75756c0.02261-0.056534 0.06784-0.056534 0.13568-0.033921-0.03392 0.056534-0.06784 0.033921-0.13568 0.033921zm0.13568-0.056534c0.01131-0.067841 0.04523-0.067841 0.09045-0.056534 0 0.056534-0.05653 0.079148-0.09045 0.056534zm0.21483-0.11307c0.02261-0.067841 0.05654-0.045228 0.11307-0.045228-0.01131 0.056534-0.05653 0.056534-0.11307 0.045228zm-2.3669-0.72364c-0.03392-0.011307-0.06784-0.033921-0.10176-0.067841-0.09046-0.12438-0.18091-0.13568-0.3279-0.090455-0.07915 0.056534-0.19222 0.11307-0.28267 0.14699-0.11307 0.045228-0.21483 0.056534-0.3279 0.12438-0.35051 0.14699-0.73495 0.33921-1.1081 0.4975-0.06784 0.022614-0.12438 0.022614-0.14699 0.067841-0.11307 0.045228-0.21483 0.10176-0.29398 0.18091-0.05653 0.067841-0.05653 0.067841-0.11307 0-0.19222 0.10176-0.36182 0.19222-0.57665 0.29398-0.18091 0.056534-0.38443 0.18091-0.57665 0.21483-0.22614 0.056534-0.47489 0.13568-0.72364 0.13568-0.11307 0.067841-0.26006 0-0.38444-0.033921-0.07915-0.033921-0.12438-0.10176-0.09046-0.21483 0.10176-0.29398 0.3279-0.53142 0.50881-0.79148 0.04523-0.045228 0.06784-0.045228 0.10176-0.045228 0.18091 0 0.36182 0.033921 0.50881 0.033921 0.10176 0 0.22614 0.011307 0.3279-0.033921 0.37313-0.056534 0.74626-0.1696 1.0515-0.41836l0.1583-0.10176c0.22614-0.090455 0.31659-0.29398 0.46358-0.47489 0.11307-0.12438 0.11307-0.28267 0.02261-0.44097-0.03392-0.056534-0.09045-0.1696-0.18091-0.24875-0.01131-0.022614-0.07915-0.033921-0.12438-0.045228-0.04523-0.033921-0.07915 0-0.10176-0.033921-0.13568-0.090455-0.26006-0.067841-0.40705 0.033921-0.10176 0.045228-0.23744 0.056535-0.33921 0.10176-0.14699 0.022614-0.30529 0.090455-0.40705 0.1696-0.38444 0.20352-0.71234 0.46358-1.0289 0.75756-0.33921 0.27137-0.61057 0.59927-0.79148 1.0063l-0.07915 0.14699c-0.04523 0.20352-0.04523 0.24875 0 0.4975 0.04523 0.13568 0.10176 0.28267 0.23744 0.38443 0.07915 0.079148 0.1696 0.13568 0.29398 0.1696 0.19222 0.067841 0.38444 0.14699 0.61057 0.056535 0.04523-0.056535 0.09045-0.056535 0.1583-0.079148 0.39574-0.056535 0.76887-0.19222 1.1081-0.38443 0.23744-0.11307 0.4862-0.22614 0.73495-0.3279 0.23744-0.13568 0.52012-0.18091 0.74626-0.35051 0.01131-0.022614 0.05654-0.022614 0.09046-0.045228 0.27136-0.11307 0.55404-0.21483 0.83671-0.33921 0.19222-0.079148 0.35051-0.1696 0.54273-0.19222 0.01131 0 0.06784-0.011307 0.06784-0.033921 0.06784-0.056534 0.02261-0.18091-0.05654-0.22614zm-4.2966 0.13568 0.30529-0.29398c0.22614-0.1696 0.45228-0.36182 0.73495-0.4975 0.21483-0.13568 0.46358-0.20352 0.71234-0.22614 0.06784 0 0.12438-0.011307 0.13568-0.056534 0.01131-0.033921 0.05653-0.079148 0.09045-0.045228 0.04523 0.045228 0.09046 0.067841 0.05653 0.12438 0 0.056534 0 0.12438-0.03392 0.1583-0.05654 0.13568-0.1583 0.27137-0.28267 0.33921-0.23744 0.18091-0.4862 0.31659-0.79148 0.40705-0.14699 0.067841-0.24875 0.10176-0.38443 0.14699-0.09046 0.022614-0.22614 0.033921-0.3279 0.056534v-0.022614c-0.05653 0-0.10176 0-0.14699 0.022614-0.03392 0-0.10176 0.033921-0.13568 0-0.01131-0.033921 0.05653-0.10176 0.06784-0.11307zm0.05318-0.26006c0-0.011307-0.06784-0.20352-0.10176-0.1696-0.09045 0.011307-0.18091 0-0.28267 0.045228-0.05653 0.067841-0.14699 0.10176-0.23744 0.13568-0.19222 0.045228-0.35051 0.067841-0.50881 0.12438-0.28267 0.056534-0.55404 0.11307-0.8254 0.1583-0.18091 0.045228-0.37313 0.045228-0.55404 0 0.06784-0.13568 0.10176-0.27137 0.14699-0.39574 0.07915-0.30529 0.06784-0.62188-0.18091-0.88194-0.05654-0.067841-0.11307-0.13568-0.1583-0.22614-0.03392-0.033921 0.01131-0.033921 0.03392-0.033921 0.05653-0.033921 0.05653-0.12438 0-0.13568-0.13568-0.045228-0.26006-0.13568-0.41836-0.079148-0.07915 0.033921-0.1583 0.033921-0.24875 0.033921-0.11307-0.022614-0.21483-0.022614-0.31659 0-0.07915 0-0.1583 0-0.21483 0.045228-0.14699 0.056534-0.30529 0.11307-0.45228 0.19222-0.09046 0.067841-0.1696 0.14699-0.24875 0.23744-0.06784 0.090455-0.09046 0.18091-0.07915 0.31659 0 0.10176-0.03392 0.22614-0.14699 0.31659-0.13568 0.14699-0.23744 0.30529-0.36182 0.45228-0.27137 0.31659-0.45228 0.67841-0.54273 1.0968-0.05653 0.10176-0.05653 0.21483-0.06784 0.30529 0 0.35051 0.24875 0.71233 0.71234 0.74626 0.26006 0 0.4975-0.067841 0.73495-0.19222 0.33921-0.18091 0.61057-0.44097 0.93847-0.64449 0.02261-0.022614 0.02261-0.033921 0.04523-0.067841l0.39574-0.41836c0.20352-0.29398 0.19222-0.24875 0.53142-0.24875 0.21483 0 0.41836 0 0.61057-0.022614 0.14699-0.022614 0.29398-0.033921 0.42966-0.033921 0.05654 0 0.11307-0.022614 0.13568-0.079148 0.01131 0 0.53142-0.14699 0.54273-0.12438zm-3.4034 0.71233c-0.12438 0.10176-0.19222 0.18091-0.28267 0.27137-0.3279 0.29398-0.68972 0.55404-1.1081 0.75756-0.12438 0.045228-0.23744 0.090455-0.31659 0.067841h-0.18091c-0.06784-0.022614-0.13568-0.079148-0.10176-0.14699 0.09045-0.1696 0.14699-0.39574 0.23744-0.57665 0.12438-0.21483 0.22614-0.41836 0.3279-0.63319 0.05653-0.19222 0.1696-0.31659 0.26006-0.47489 0.01131-0.045228 0.05654-0.045228 0.11307 0.011307 0.26006 0.30529 0.55404 0.52012 0.96109 0.59927 0.01131 0.033921 0.04523 0.033921 0.05653 0.045228 0.03392 0 0.04523 0.056534 0.03392 0.079148zm0.6558-1.1985c-0.01131 0.22614-0.10176 0.42966-0.22614 0.64449-0.03392 0.067841-0.11307 0.10176-0.22614 0.090455-0.19222-0.033921-0.39574-0.056534-0.59926-0.14699-0.12438-0.045228-0.29398-0.090455-0.38444-0.20352-0.01131-0.033921-0.05653-0.067841-0.07915-0.10176-0.05654-0.045228-0.05654-0.090455 0-0.13568l0.24875-0.22614c0.14699-0.11307 0.28267-0.23744 0.44097-0.3279 0.13568-0.11307 0.27136-0.19222 0.44097-0.28267 0.01131-0.011307 0.04523 0 0.06784 0 0.04523 0.033921 0.07915 0.056535 0.09045 0.079148 0.1696 0.14699 0.27137 0.36182 0.22614 0.61057zm-9.0699 1.6508c-0.04523 0.011307-0.04523 0.056535-0.04523 0.12438h0.04523c0 0.033921 0 0.090455-0.04523 0.11307v-0.11307c-0.10176 0.033921-0.13568 0.11307-0.10176 0.22614h-0.03392v0.011307h0.03392v-0.011307h0.03392c0-0.045228 0.02261-0.10176 0.06784-0.11307 0 0.056534 0 0.090455-0.06784 0.12438 0 0.033921 0 0.079148-0.06784 0.10176v-0.10176c-0.05653 0.033921-0.05653 0.067841 0 0.10176 0 0.045228 0.03392 0.12438-0.07915 0.079148 0 0.022614-0.01131 0.067841-0.01131 0.10176 0.03392 0.022614 0.03392 0.067841 0.04523 0.11307h-0.01131v0.011307h0.01131v-0.011307h0.04523v0.011307h0.03392c-0.03392 0.033921-0.03392 0.079148-0.03392 0.11307 0 0-0.01131 0-0.01131 0.022614-0.01131-0.022614-0.03392-0.022614-0.03392-0.022614 0-0.033921 0-0.079148-0.01131-0.11307h-0.03392s0 0.022614-0.01131 0.033921c0 0.022614 0 0.045228-0.03392 0.045228 0 0-0.01131-0.022614-0.01131-0.045228v-0.033921c-0.09045 0.033921-0.05654 0.090455-0.07915 0.1696 0.02261 0.011307 0.04523 0.011307 0.04523 0.022614v0.045228c-0.02261 0-0.02261-0.011307-0.04523-0.011307v-0.056535c-0.01131 0.011307-0.03392 0.011307-0.03392 0.022614-0.05654 0.21483-0.11307 0.40705-0.21483 0.62188-0.06784 0.090455-0.06784 0.21483 0 0.29398 0.06784 0.10176 0.14699 0.22614 0.27136 0.23744 0.05654 0 0.10176 0 0.11307-0.011307 0.09046-0.056534 0.18091-0.13568 0.27137-0.20352 0.03392-0.13568 0.19222-0.13568 0.23744-0.22614 0.29398-0.27137 0.59926-0.52012 0.87063-0.8141 0.14699-0.18091 0.31659-0.31659 0.4975-0.46358 0.33921-0.24875 0.63319-0.4975 0.97239-0.75756 0.03392-0.033921 0.05654-0.067841 0.07915-0.10176h-0.10176c0.02261-0.056534 0.07915-0.056534 0.12438-0.056534 0.01131-0.022614 0.03392-0.022614 0.05654-0.056535v0.056535c0.18091-0.056535 0.33921-0.14699 0.50881-0.27137 0.01131-0.022614 0.03392-0.033921 0.05654-0.079148h-0.10176c0-0.011307 0-0.022614-0.01131-0.033921-0.12438-0.022614-0.22614 0.033921-0.29398 0.14699 0.02261 0.033921 0.03392 0.033921 0.03392 0.045228 0 0-0.01131 0-0.03392 0.033921v-0.07915c-0.03392 0-0.06784 0.033921-0.11307 0.079148-0.02261 0-0.04523 0.011307-0.06784 0.045228-0.03392 0-0.07915 0.011307-0.11307 0.045228-0.13568 0.090455-0.28267 0.18091-0.38444 0.28267-0.02261 0-0.03392 0.045228-0.06784 0.079148 0 0 0 0.011307 0.01131 0.011307l-0.01131-0.011307c-0.11307 0-0.18091 0.11307-0.28267 0.1583-0.11307 0.10176-0.23744 0.19222-0.37313 0.28267-0.28267 0.22614-0.53142 0.46358-0.8254 0.72364-0.03392 0.011307-0.06784 0.067841-0.13568 0.056534 0.07915-0.14699 0.18091-0.23744 0.30529-0.35051 0.28267-0.26006 0.58796-0.4975 0.89325-0.75756 0.1583-0.13568 0.33921-0.28267 0.4975-0.38443 0.1696-0.13568 0.3279-0.26006 0.50881-0.3279 0.28267-0.1696 0.52012-0.37313 0.84802-0.4862 0.13568-0.045228 0.27137-0.14699 0.40705-0.19222 0.02261 0 0.04523 0 0.05653 0.033921l-0.01131 0.033921c-0.09045 0.033921-0.1696 0.079148-0.22614 0.12438-0.06784 0.022614-0.09045 0.033921-0.09045 0.090455h0.11307v0.079148c0.03392 0.011307 0.05653 0.033921 0.03392 0.067841-0.03392 0.079148-0.14699 0.14699-0.1583 0.22614-0.03392 0.13568-0.07915 0.22614-0.1696 0.35051-0.21483 0.3279-0.46358 0.6558-0.70103 1.0063-0.01131 0.056534-0.05653 0.10176-0.07915 0.13568-0.10176 0.27137 0.07915 0.53142 0.28267 0.57665 0.38444 0.045228 0.75756-0.033921 1.0855-0.21483 0.10176-0.056534 0.18091-0.12438 0.29398-0.1583 0.1696-0.090455 0.33921-0.26006 0.54273-0.33921 0.18091-0.18091 0.37313-0.30529 0.56534-0.45228 0.1696-0.12438 0.29398-0.23744 0.4862-0.31659 0.02261-0.022614 0.07915-0.056535 0.11307-0.10176 0.19222-0.1583 0.39575-0.28267 0.61058-0.42966l0.31659-0.11307c0.07915-0.022614 0.12438 0.011307 0.18091 0.033921h0.07915c0.05654 0 0.09046-0.079148 0.06784-0.12438-0.05654-0.13568-0.1583-0.22614-0.24875-0.29398-0.02261-0.022614-0.07915-0.022614-0.09045-0.022614-0.12438-0.011307-0.22614-0.011307-0.31659 0.067841-0.09046 0.045228-0.20352 0.10176-0.29398 0.1583-0.31659 0.18091-0.63319 0.36182-0.90455 0.59927-0.20352 0.13568-0.38444 0.28267-0.58796 0.41836-0.1583 0.12438-0.28267 0.22614-0.44097 0.31659-0.28267 0.19222-0.61057 0.36182-0.93847 0.46358-0.05653 0.011307-0.13568 0.045228-0.22614 0.045228-0.01131 0.011307-0.05653 0-0.07915-0.033921 0 0 0.02261-0.045228 0.02261-0.056534 0.12438-0.1583 0.22614-0.31659 0.33921-0.50881 0.05653-0.12438 0.13568-0.23744 0.21483-0.36182 0.03392-0.045228 0.05653-0.056534 0.11307-0.045228 0.04523 0.022614 0.09045 0.022614 0.12438 0.022614 0.04523 0 0.06784-0.022614 0.10176-0.056534 0.09046-0.18091 0.24875-0.30529 0.36182-0.47489 0.14699-0.1696 0.19222-0.38443 0.1583-0.61057 0-0.090455-0.11307-0.067841-0.06784-0.1696v-0.011307c-0.12438 0-0.20352-0.011307-0.27137-0.13568-0.02261-0.011307-0.05653 0-0.09045 0-0.19222-0.011307-0.36182 0.045228-0.54273 0.13568-0.10176 0.045228-0.21483 0.11307-0.3279 0.18091-0.13568 0.056534-0.23744 0.090455-0.3279 0.18091-0.07915 0.10176-0.1696 0.13568-0.27137 0.18091-0.11307 0.033921-0.23744 0.079148-0.3279 0.19222-0.01131 0.022614-0.03392 0.033921-0.06784 0.056534-0.1583 0.033921-0.24875 0.11307-0.35051 0.18091l-0.99501 0.8141c-0.05654 0.056534-0.07915 0.090455-0.12438 0.14699-0.07915 0.045228-0.14699 0.056534-0.1696 0.14699l-0.53142 0.47489c-0.09046 0.11307-0.22614 0.18091-0.33921 0.27137l-0.01131 0.033921c-0.02261-0.033921-0.02261-0.045228-0.02261-0.056534 0.03392-0.11307 0.11307-0.26006 0.14699-0.40705 0.03392-0.056534 0.04523-0.13568 0.04523-0.20352 0.02261-0.079148 0.14699-0.11307 0.09046-0.21483 0.10176-0.10176 0.14699-0.27137 0.23744-0.39574 0.03392-0.033921 0.05653-0.10176 0.07915-0.13568 0-0.011307-0.02261-0.056535-0.04523-0.067841-0.02261 0-0.02261 0.011307-0.03392 0.056535 0-0.045228-0.02261-0.056535-0.02261-0.056535h-0.03392v-0.011307h-0.02261v-0.10176c-0.06784 0.056534-0.06784 0.056534 0 0.10176v0.011307h0.02261v0.067841c0 0.033921 0.01131 0.079148 0.01131 0.079148-0.01131 0-0.04523 0.022614-0.09046 0.022614-0.01131 0.12438-0.10176 0.20352-0.1696 0.29398v-0.1696h-0.06784zm6.7954-6.7163c-0.18091-0.19222-0.31659-0.37313-0.59927-0.37313-0.23744-0.011307-0.47489-0.011307-0.62188 0.1696-0.07915 0.056534-0.12438 0.090455-0.18091 0.1583-0.04523 0.045228-0.09045 0.079148-0.13568 0.11307-0.07915 0.022614-0.14699 0.10176-0.21483 0.1583-0.1583 0.1696-0.31659 0.29398-0.50881 0.45228-0.40705 0.42966-0.55404 0.45228-0.52012 0.59927h0.03392l-0.03392 0.067841c-0.02261 0.045228-0.04523 0.011307-0.06784 0-0.14699 0.045228-0.23744 0.1696-0.28267 0.33921h0.04523v0.090455h-0.04523c0-0.011307 0-0.056534-0.01131-0.090455-0.11307 0.033921-0.1696 0.13568-0.22614 0.23744v0.033921h0.05653c-0.01131 0.045228-0.01131 0.056535-0.05653 0.056535v-0.056535c-0.12438 0-0.1696 0.10176-0.1696 0.19222l0.07915-0.056534c0.01131 0 0.06784-0.022614 0.09046-0.033921v0.090455c0.05653-0.045228 0.11307-0.079148 0.1583-0.13568 0.03392-0.033921 0.04523-0.056535 0.07915-0.056535 0 0.022614-0.01131 0.045228-0.01131 0.056535h-0.03392c-0.05654 0.12438-0.05654 0.21483-0.13568 0.29398-0.01131 0.033921-0.04523 0.079148-0.07915 0.11307-0.05654 0.067841-0.10176 0.056535-0.14699 0 0.02261-0.033921 0.04523-0.045228 0.06784-0.090455 0.01131-0.033921 0.02261-0.079148 0.02261-0.13568-0.02261 0.033921-0.06784 0.056535-0.10176 0.079148v-0.12438c-0.10176 0.045228-0.20353 0.14699-0.22614 0.27137h0.05654c0 0.045228-0.01131 0.045228-0.01131 0.056535-0.02261-0.011307-0.02261-0.011307-0.04523-0.056535-0.09046 0.067841-0.14699 0.14699-0.19222 0.23744-0.03392 0.011307-0.03392 0.045228-0.03392 0.056535 0.04523-0.011307 0.06784-0.011307 0.10176-0.045228v0.10176c0.03392-0.022614 0.09046-0.022614 0.12438-0.033921v0.090455h0.05654c0.02261 0.022614 0.02261 0.022614 0.02261 0.056535 0.01131-0.033921 0.01131-0.033921 0.01131-0.056535h-0.03392s0-0.022614 0.02261-0.022614c0 0 0 0.022614 0.02261 0.022614h0.02261c0.05654-0.033921 0.10176-0.079148 0.10176-0.1696 0 0.011307 0.01131 0.011307 0.01131 0.011307l-0.01131-0.011307c0.10176-0.067841 0.22614-0.1696 0.33921-0.18091 0.09045-0.056535 0.13568-0.1696 0.1583-0.24875 0-0.079148 0.01131-0.13568 0.06784-0.21483 0.04523-0.033921 0.05654-0.067841 0.07915-0.10176-0.09045-0.033921-0.09045-0.033921-0.18091 0.011307l0.01131-0.011307h-0.01131c0-0.033921 0-0.067841 0.01131-0.11307 0.02261-0.022614 0.07915-0.033921 0.11307-0.056535l0.05653 0.056535v0.11307c0.05654-0.045228 0.05654-0.067841 0-0.11307v-0.056535h-0.05653c0-0.045228 0.02261-0.056535 0.05653-0.056535v0.056535c0.01131 0 0.05654 0 0.07915 0.022614 0.02261 0 0.04523 0.011307 0.07915 0 0-0.022614 0-0.011307 0.02261-0.045228 0.55404-0.4975 0.23744-0.35051 1.3229-1.3229 0.13568-0.12438 0.27137-0.22614 0.42966-0.3279 0.04523-0.033921 0.04523-0.045228 0.06784-0.079148 0.04523-0.11307 0.14699-0.13568 0.20352-0.19222 0-0.022614 0.09046 0 0.10176 0.011307 0.07915 0.11307 0.12438 0.19222 0.06784 0.31659-0.36181 0.73495-0.8367 1.2551-1.3568 1.7865-0.21483 0.19222-0.40705 0.38443-0.63319 0.57665-0.20352 0.18091-0.41836 0.39574-0.64449 0.54273-0.19222 0.14699-0.3279 0.29398-0.52012 0.41836-0.04523 0.056534-0.12438 0.12438-0.19222 0.14699-0.12438 0.079148-0.23744 0.1696-0.33921 0.24875-0.07915 0.067841-0.1583 0.12438-0.21483 0.20352-0.09046 0.090455-0.18091 0-0.28267 0.056534 0-0.022614 0-0.022614-0.01131-0.045228 0 0.022614-0.02261 0.022614-0.03392 0.045228h0.04523c0 0.079148-0.04523 0.13568-0.09046 0.18091-0.02261 0.033921-0.03392 0.045228-0.03392 0.045228-0.11307-0.067841-0.11307 0.12438-0.20352 0.079148v-0.12438c-0.11307 0.045228-0.18091 0.10176-0.18091 0.21483-0.07915 0.033921-0.09045 0.10176-0.13568 0.13568-0.01131 0.011307-0.04523 0.011307-0.07915 0.022614 0-0.022614-0.01131-0.045228-0.01131-0.056534-0.10176 0.090455-0.1696 0.23744-0.3279 0.28267 0 0-0.02261 0.056535 0 0.056535 0.03392 0.056534-0.02261 0.13568 0.05653 0.1696 0.03392 0 0.03392 0.067841 0.04523 0.10176 0.01131 0 0.04523 0 0.04523 0.045228 0.11307-0.011307 0.22614-0.045228 0.28267-0.10176 0.12438-0.079148 0.21483-0.12438 0.33921-0.1583l0.11308-0.056536c0.33921-0.20352 0.70103-0.40705 0.99501-0.6558 0.20352-0.13568 0.40705-0.29398 0.58796-0.44097 0.23744-0.18091 0.46358-0.35051 0.68972-0.54273 0.19222-0.18091 0.40705-0.35051 0.58796-0.56534l0.29398-0.3279c0.05654-0.11307 0.20352-0.21483 0.31659-0.31659 0.1583-0.14699 0.3279-0.29398 0.45228-0.46358 0.05654-0.079148 0.14699-0.11307 0.19222-0.18091 0.07915-0.11307 0.11307 0.1583 0.78018-1.2777 0-0.045228 0.01131-0.079148 0.01131-0.090455 0-0.045228 0-0.056534-0.01131-0.079148zm-4.014 2.7702v0.022614h0.01131c-0.01131 0.033921-0.01131 0.090455-0.05653 0.10176-0.02261 0.079148-0.04523 0.13568-0.10176 0.19222-0.03392 0.011307-0.07915 0.045228-0.07915 0.090455 0.04523 0 0.07915 0 0.12438 0.022614-0.02261 0.011307-0.04523 0.056535-0.04523 0.067841-0.02261 0.056534-0.02261 0.079148 0.02261 0.079148 0.05654-0.022614 0.10176-0.022614 0.1696-0.045228 0.06784-0.033921 0.03392-0.056534 0.03392-0.10176 0.01131-0.022614 0.05653-0.022614 0.10176-0.022614h0.02261c-0.02261-0.011307-0.02261-0.045228-0.02261-0.045228-0.04523 0-0.09046 0-0.10176-0.011307 0-0.033921 0.03392-0.033921 0.06784-0.067841 0.05653 0 0.07915-0.022614 0.07915-0.033921 0-0.045228-0.04523-0.067841-0.09046-0.067841h-0.05653c0-0.022614 0-0.056534 0.01131-0.10176 0-0.022614 0.02261-0.045228 0.02261-0.079148-0.03392 0.022614-0.06784 0.022614-0.10176 0.022614v-0.022614l-0.01131-0.033921c-0.02261 0-0.04523 0.011307-0.04523 0.033921zm-0.54273 0.99501h-0.02261v-0.12438c-0.03392 0.022614-0.07915 0.033921-0.13568 0.079148v-0.12438c-0.07915 0.022614-0.09046 0.079148-0.09046 0.1696h0.04523c0.01131 0.090455-0.03392 0.14699-0.09045 0.18091 0 0.045228-0.04523 0.056534-0.07915 0.045228 0-0.022614 0.02261-0.045228 0.07915-0.045228-0.04523-0.033921-0.04523-0.090455-0.04523-0.12438-0.05653 0.033921-0.11307 0.090455-0.09046 0.1696l-0.02261 0.011307h0.02261v-0.011307c0.01131 0 0.03392 0.011307 0.05653 0.011307 0 0.079148-0.04523 0.13568-0.11307 0.1696v-0.11307c-0.07915 0.045228-0.12438 0.090455-0.12438 0.1696 0.03392-0.022614 0.07915-0.045228 0.12438-0.056534v0.11307c0.03392-0.045228 0.06784-0.056534 0.11307-0.10176 0.03392-0.033921 0.07915-0.079148 0.12438-0.079148-0.02261-0.079148 0.01131-0.13568 0.09046-0.1583v-0.022614c0-0.079148 0.05654-0.11307 0.13568-0.1583 0.01131 0.011307 0.01131 0.011307 0.01131 0.045228 0.01131-0.033921 0.01131-0.033921 0.01131-0.045228zm-1.8317 2.4875h0.06784c0 0.067841-0.02261 0.1583-0.12438 0.18091v0.10176h0.05653c0.04523-0.067841 0.11307-0.12438 0.1583-0.1696 0.10176-0.079148 0.18091-0.14699 0.19222-0.28267v-0.011307h-0.04523l0.03392-0.022614c0.01131 0 0.01131 0.022614 0.01131 0.022614 0.03392-0.033921 0.07915-0.11307 0.11307-0.1696-0.02261-0.011307-0.04523-0.011307-0.04523-0.011307-0.04523 0-0.06784 0.011307-0.11307 0.033921-0.06784 0.033921-0.04523 0.14699-0.11307 0.1583 0.01131 0.045228 0.03392 0.11307-0.04523 0.13568l-0.02261 0.011307v0.022614h-0.05653v-0.11307c-0.06784 0.033921-0.04523 0.079148-0.06784 0.11307zm1.9109-2.4875-0.04523 0.1583c0.03392 0 0.09046-0.011307 0.12438-0.056534 0.05653-0.022614 0.10176-0.090455 0.14699-0.12438 0.03392-0.022614 0.09046-0.079148 0.05654-0.12438-0.05654-0.045228-0.09046 0.022614-0.13568 0.045228-0.01131 0.011307-0.04523 0.056534-0.06784 0.056534-0.02261 0.022614-0.03392 0.045228-0.07915 0.045228zm1.3907 1.73c-0.07915 0-0.1696 0.033921-0.22614 0.13568h0.1696c0 0.011307-0.01131 0.022614-0.02261 0.033921-0.01131 0.011307-0.04523 0.011307-0.06784 0.045228 0.02261 0 0.06784 0.011307 0.09046 0.011307 0.06784-0.045228 0.14699-0.079148 0.18091-0.14699h-0.12439zm0.30529-3.9461c0-0.079148 0.04523-0.14699 0.11307-0.18091 0.03392-0.079148 0.07915-0.12438 0.1583-0.1583l-0.01131 0.011307h0.02261c0 0.045228-0.02261 0.056534-0.05654 0.056534l-0.01131 0.011307c0 0.011307-0.01131 0.022614-0.02261 0.033921l-0.03392 0.045228c-0.01131 0.10176-0.09045 0.13568-0.1583 0.18091zm0.53142-0.57665-0.02261 0.033921-0.13568 0.12438c-0.01131 0-0.02261 0.011307-0.02261 0.011307h0.01131c-0.01131 0.033921-0.03392 0.056534-0.03392 0.056534 0-0.011307 0-0.033921 0.01131-0.045228v-0.10176c0.03392-0.011307 0.06784-0.022614 0.06784-0.067841 0.04523-0.033921 0.09045-0.079148 0.1583-0.11307 0 0.033921 0 0.079148-0.03392 0.10176zm-2.1144 2.3858c-0.03392 0.045228-0.11307 0.079148-0.14699 0.13568l-0.06784 0.045228v0.10176c0.1583-0.10176 0.20352-0.13568 0.21483-0.28267zm0.89324 2.4875c0.01131-0.022614 0.07915 0 0.10176-0.033921h-0.10176v-0.022614h-0.02261c0.02261-0.067841 0.09045-0.045228 0.12438-0.067841 0.01131-0.011307 0.04523-0.056534 0.04523-0.090455-0.13568 0.033921-0.21483 0.079148-0.27136 0.1583h0.10176v0.022614h0.02261zm-0.61057-2.9511v-0.10176c-0.05654 0.056535-0.13568 0.10176-0.1583 0.19222 0.05654-0.011307 0.12438-0.045228 0.1583-0.090455zm-0.1583 0.30529c-0.05653 0.011307-0.12438 0.056535-0.12438 0.1583 0.11307-0.011307 0.12438-0.090455 0.12438-0.1583zm-2.3858 3.1659c-0.05653 0.067841-0.07915 0.14699-0.10176 0.23744 0.10176-0.056535 0.12438-0.13568 0.10176-0.23744zm3.0302-3.7539h-0.05654c0-0.10176 0.04523-0.13568 0.10176-0.19222 0.01131 0.090455-0.04523 0.13568-0.04523 0.19222zm-2.2614 2.6006c-0.09046 0.045228-0.11307 0.079148-0.11307 0.18091 0.06784-0.033921 0.10176-0.10176 0.11307-0.18091zm-0.46358 0.68972c-0.09046 0.033921-0.10176 0.10176-0.12438 0.1696 0.07915-0.022614 0.12438-0.079148 0.12438-0.1696zm-0.18091 0.31659c-0.09045 0.011307-0.10176 0.067841-0.10176 0.14699 0.09046-0.045228 0.10176-0.079148 0.10176-0.14699zm-0.06784 0.46358c0-0.033921-0.02261-0.045228-0.02261-0.067841-0.01131 0.022614-0.03392 0.022614-0.03392 0.033921-0.03392 0.045228-0.03392 0.079148-0.03392 0.12438 0.03392-0.022614 0.05653-0.045228 0.09046-0.056535zm1.8769-3.1546c0 0.011307 0 0.045228-0.02261 0.056534 0.05654-0.011307 0.10176-0.045228 0.13568-0.045228-0.03392-0.045228-0.07915-0.090455-0.11307-0.011307zm-2.284 3.9461c0-0.045228 0-0.090455 0.06784-0.11307 0 0.033921 0 0.11307-0.03392 0.12438v-0.011307zm1.3003-2.0805h0.04523v-0.11307h-0.04523zm-0.09046 0.27137c0.02261 0 0.04523-0.022614 0.04523-0.022614 0.03392-0.011307 0.03392-0.056534 0.03392-0.067841-0.03392 0.011307-0.05653 0.011307-0.07915 0.033921-0.01131 0.022614-0.01131 0.056534 0 0.056534zm1.6282-2.2162c0-0.011307 0-0.011307-0.02261-0.011307-0.02261 0.011307-0.03392 0.056534-0.05654 0.067841 0 0.022614 0.02261 0.022614 0.02261 0.022614 0.03392 0 0.07915-0.022614 0.05653-0.079148zm3.1659-2.4084c0-0.045228 0-0.090455 0.04523-0.12438 0.02261 0.045228 0.02261 0.10176-0.04523 0.12438zm-5.9361 6.3206v-0.022614c0-0.045228 0.02261-0.079148 0.06784-0.090455 0 0.033921 0 0.090455-0.06784 0.11307zm2.2953-0.84802c-0.03392 0.022614-0.01131 0-0.02261-0.011307 0.01131 0 0.02261 0.011307 0.02261 0.011307zm1.0176-0.70103v-0.022614h-0.01131v0.022614zm-2.4562 0.13568h-0.11307c0.03392-0.056535 0.05654-0.056535 0.11307-0.056535h0.01131c0.01131-0.045228 0.05653-0.079148 0.09046-0.045228 0.05654 0.045228 0.10176 0.045228 0.20352 0.011307 0.04523-0.011307 0.11307-0.011307 0.18091-0.045228l0.09046-0.045228c0.02261-0.056535-0.01131-0.079148-0.05654-0.11307-0.12438-0.090455-0.10176-0.090455-0.23744-0.079148-0.18091 0.045228-0.39574 0.11307-0.57665 0.19222-0.01131 0.011307-0.02261 0.033921-0.02261 0.045228 0.01131 0.033921 0.02261 0.045228 0 0.079148-0.04523 0.056535-0.09046 0.056535-0.13568 0.056535 0.01131-0.056535 0.05654-0.045228 0.11307-0.056535v-0.079148h-0.11307c-0.31659 0.1696-0.6558 0.31659-0.9837 0.45228-0.03392 0.011307-0.04523 0.056534-0.06784 0.090455 0.06784 0 0.10176-0.022614 0.1696-0.033921 0.01131-0.045228 0.05653 0 0.09046 0-0.01131 0.011307-0.03392 0.033921-0.04523 0.033921-0.07915 0.045228-0.14699 0.10176-0.26006 0.090455 0-0.022614 0.03392-0.045228 0.04523-0.090455-0.04523 0-0.06784 0.011307-0.10176 0.045228-0.33923 0.1583-0.66713 0.3279-0.96111 0.52012-0.11307 0.056534-0.14699 0.056534-0.19222-0.056534-0.090455-0.21483-0.23744-0.41836-0.38443-0.64449-0.090455-0.1583-0.18091-0.31659-0.19222-0.4975-0.045228-0.10176 0-0.18091 0.079148-0.23744 0.067841-0.067841 0.13568-0.13568 0.21483-0.1696 0.09046-0.022614 0.1696-0.079148 0.28267-0.011307 0.09046 0.033921 0.13568 0.011307 0.1696-0.11307 0.02261-0.045228 0.02261-0.033921 0.05653 0 0.13568 0.12438 0.31659 0.14699 0.45228 0.067841 0.05654-0.045228 0.07915-0.11307 0.01131-0.18091-0.18091-0.18091-0.36182-0.3279-0.64449-0.33921-0.20352-0.033921-0.40705 0.033921-0.59927 0.045228-0.12438 0.033921-0.27137 0.13568-0.36182 0.22614-0.10176 0.10176-0.12438 0.22614-0.11307 0.33921 0.011307 0.14699 0.011307 0.30529 0.11307 0.45228 0.1583 0.23744 0.29398 0.53142 0.44097 0.76887 0.079148 0.1583 0.19222 0.28267 0.24875 0.42966 0.06784 0.067841 0.04523 0.10176-0.01131 0.1583-0.31659 0.18091-0.58795 0.38443-0.88193 0.55404-0.13568 0.090455-0.27137 0.1696-0.38443 0.26006-0.27137 0.1583-0.53142 0.33921-0.75756 0.55404-0.033921 0.056534-0.056534 0.067841-0.067841 0.10176-0.090455 0.1583-0.079148 0.30529-0.022614 0.46358 0.033921 0.14699 0.11307 0.23744 0.26006 0.28267 0.10176 0.06784 0.23744 0.10176 0.37313 0.1696 0.18091 0.07915 0.35051 0.14699 0.52012 0 0.079148-0.03392 0.1696-0.03392 0.28267-0.06784 0.090455-0.01131 0.20352-0.06784 0.27137-0.14699 0.14699-0.12438 0.30529-0.24875 0.45228-0.39574 0.22614-0.20352 0.33921-0.30529 0.42966-0.58796 0.06784-0.1696 0.12438-0.35051 0.06784-0.55404-0.02261-0.090455-0.02261-0.18091-0.03392-0.29398 0-0.10176 0.01131-0.1583 0.12438-0.20352 0.09046-0.056535 0.1583-0.14699 0.28267-0.14699 0.1583-0.10176 0.29398-0.18091 0.42966-0.29398 0.07915-0.022614 0.13568-0.079148 0.18091-0.10176 0.10176 0 0-0.11307 0.11307-0.11307 0.1696-0.10176 0.33921-0.18091 0.4975-0.27137 0.04523-0.011307 0.09045-0.011307 0.10176-0.011307 0.11307-0.090455 0.21483-0.14699 0.31659-0.18091 0.10176-0.045228 0.14699-0.079148 0.22614-0.13568v-0.033921h-0.06784c0.01131 0 0.02261-0.011307 0.02261-0.022614h-0.03392c0.04523-0.045228 0.13568-0.033921 0.18091-0.033921 0.04523 0.056534 0.06784 0.056534 0.11307 0zm-3.1207 2.6458c-0.056535 0.056534-0.11307 0.079148-0.1583 0.13568-0.13568 0.18091-0.31659 0.23744-0.54273 0.28267-0.056534 0-0.11307 0.033921-0.1583 0.033921-0.13568 0.033921-0.24875 0.033921-0.37313 0-0.090455-0.033921-0.20352-0.045228-0.27137-0.079149-0.033921 0-0.045228-0.011307-0.033921-0.033921 0-0.022614 0.033921-0.056535 0.045228-0.079148 0.14699-0.18091 0.3279-0.3279 0.55404-0.44097 0.27137-0.14699 0.50881-0.30529 0.74626-0.52012 0.1583-0.12438 0.3279-0.21483 0.52012-0.3279 0.10176 0.42966-0.056535 0.74626-0.3279 1.0289zm1.3907-1.9109v-0.045228h-0.11307c0.04523-0.12438 0.11307-0.12438 0.23744-0.10176v0.033921c-0.05653 0-0.10176 0-0.12438 0.067841 0.04523 0 0.12438 0 0.13568-0.067841h0.09046c-0.04523 0.11307-0.10176 0.1583-0.22614 0.11307zm-0.11307 0.067841v-0.067841l-0.05653 0.067841h-0.1696c0.04523-0.10176 0.12438-0.11307 0.22614-0.11307v0.045228h0.10176c0 0.067841-0.05653 0.067841-0.10176 0.067841zm1.0628-0.53142v-0.045228h-0.18091c0.04523-0.079148 0.10176-0.13568 0.20352-0.11307-0.01131 0.033921-0.02261 0.067841-0.02261 0.11307h0.09045c-0.02261 0.045228-0.06784 0.045228-0.09045 0.045228zm-1.5717 0.70103c0.05653-0.10176 0.13568-0.13568 0.27136-0.1696-0.06784 0.11307-0.1696 0.1696-0.27136 0.1696zm1.8996-0.93847h0.1583v0.022614c-0.02261 0.090455-0.10176 0.033921-0.1583 0.033921v-0.033921c-0.01131 0-0.03392 0-0.04523-0.022614-0.03392 0-0.03392 0-0.04523-0.022614 0.01131 0 0.01131-0.011307 0.04523-0.011307h0.04523zm-2.0805 1.0628c0.01131-0.079148 0.07915-0.12438 0.1696-0.11307-0.02261 0.067841-0.09046 0.11307-0.1696 0.11307zm1.4925-0.68972c0.02261-0.079148 0.07915-0.079148 0.12438-0.079148-0.02261 0.079148-0.04523 0.079148-0.12438 0.079148zm-2.0013 0.97239c0.03392-0.045228 0.05653-0.045228 0.10176-0.045228 0.02261 0 0.02261 0.011307 0.02261 0.011307-0.03392 0.033921-0.07915 0.045228-0.11307 0.067841l-0.01131-0.022614zm1.5377-0.75756c0.02261-0.056534 0.06784-0.056534 0.13568-0.033921-0.03392 0.056534-0.06784 0.033921-0.13568 0.033921zm0.13568-0.056534c0.01131-0.067841 0.04523-0.067841 0.09045-0.056534 0 0.056534-0.05653 0.079148-0.09045 0.056534zm0.21483-0.11307c0.02261-0.067841 0.05654-0.045228 0.11307-0.045228-0.01131 0.056534-0.05653 0.056534-0.11307 0.045228z" fill="#f95b5b" stroke-width="0"/>
  </g>
 </g>
</svg>
